G04 #@! TF.GenerationSoftware,KiCad,Pcbnew,(5.1.5)-3*
G04 #@! TF.CreationDate,2025-02-09T11:39:34+01:00*
G04 #@! TF.ProjectId,ESP32-cnc,45535033-322d-4636-9e63-2e6b69636164,rev?*
G04 #@! TF.SameCoordinates,Original*
G04 #@! TF.FileFunction,Paste,Top*
G04 #@! TF.FilePolarity,Positive*
%FSLAX46Y46*%
G04 Gerber Fmt 4.6, Leading zero omitted, Abs format (unit mm)*
G04 Created by KiCad (PCBNEW (5.1.5)-3) date 2025-02-09 11:39:34*
%MOMM*%
%LPD*%
G04 APERTURE LIST*
%ADD10C,0.100000*%
%ADD11R,1.060000X0.650000*%
%ADD12R,2.500000X1.800000*%
%ADD13R,1.420000X0.400000*%
%ADD14R,1.500000X2.000000*%
%ADD15R,0.800000X1.200000*%
G04 APERTURE END LIST*
D10*
G36*
X40568305Y-43060704D02*
G01*
X40592573Y-43064304D01*
X40616372Y-43070265D01*
X40639471Y-43078530D01*
X40661650Y-43089020D01*
X40682693Y-43101632D01*
X40702399Y-43116247D01*
X40720577Y-43132723D01*
X40737053Y-43150901D01*
X40751668Y-43170607D01*
X40764280Y-43191650D01*
X40774770Y-43213829D01*
X40783035Y-43236928D01*
X40788996Y-43260727D01*
X40792596Y-43284995D01*
X40793800Y-43309499D01*
X40793800Y-44209501D01*
X40792596Y-44234005D01*
X40788996Y-44258273D01*
X40783035Y-44282072D01*
X40774770Y-44305171D01*
X40764280Y-44327350D01*
X40751668Y-44348393D01*
X40737053Y-44368099D01*
X40720577Y-44386277D01*
X40702399Y-44402753D01*
X40682693Y-44417368D01*
X40661650Y-44429980D01*
X40639471Y-44440470D01*
X40616372Y-44448735D01*
X40592573Y-44454696D01*
X40568305Y-44458296D01*
X40543801Y-44459500D01*
X39893799Y-44459500D01*
X39869295Y-44458296D01*
X39845027Y-44454696D01*
X39821228Y-44448735D01*
X39798129Y-44440470D01*
X39775950Y-44429980D01*
X39754907Y-44417368D01*
X39735201Y-44402753D01*
X39717023Y-44386277D01*
X39700547Y-44368099D01*
X39685932Y-44348393D01*
X39673320Y-44327350D01*
X39662830Y-44305171D01*
X39654565Y-44282072D01*
X39648604Y-44258273D01*
X39645004Y-44234005D01*
X39643800Y-44209501D01*
X39643800Y-43309499D01*
X39645004Y-43284995D01*
X39648604Y-43260727D01*
X39654565Y-43236928D01*
X39662830Y-43213829D01*
X39673320Y-43191650D01*
X39685932Y-43170607D01*
X39700547Y-43150901D01*
X39717023Y-43132723D01*
X39735201Y-43116247D01*
X39754907Y-43101632D01*
X39775950Y-43089020D01*
X39798129Y-43078530D01*
X39821228Y-43070265D01*
X39845027Y-43064304D01*
X39869295Y-43060704D01*
X39893799Y-43059500D01*
X40543801Y-43059500D01*
X40568305Y-43060704D01*
G37*
G36*
X42618305Y-43060704D02*
G01*
X42642573Y-43064304D01*
X42666372Y-43070265D01*
X42689471Y-43078530D01*
X42711650Y-43089020D01*
X42732693Y-43101632D01*
X42752399Y-43116247D01*
X42770577Y-43132723D01*
X42787053Y-43150901D01*
X42801668Y-43170607D01*
X42814280Y-43191650D01*
X42824770Y-43213829D01*
X42833035Y-43236928D01*
X42838996Y-43260727D01*
X42842596Y-43284995D01*
X42843800Y-43309499D01*
X42843800Y-44209501D01*
X42842596Y-44234005D01*
X42838996Y-44258273D01*
X42833035Y-44282072D01*
X42824770Y-44305171D01*
X42814280Y-44327350D01*
X42801668Y-44348393D01*
X42787053Y-44368099D01*
X42770577Y-44386277D01*
X42752399Y-44402753D01*
X42732693Y-44417368D01*
X42711650Y-44429980D01*
X42689471Y-44440470D01*
X42666372Y-44448735D01*
X42642573Y-44454696D01*
X42618305Y-44458296D01*
X42593801Y-44459500D01*
X41943799Y-44459500D01*
X41919295Y-44458296D01*
X41895027Y-44454696D01*
X41871228Y-44448735D01*
X41848129Y-44440470D01*
X41825950Y-44429980D01*
X41804907Y-44417368D01*
X41785201Y-44402753D01*
X41767023Y-44386277D01*
X41750547Y-44368099D01*
X41735932Y-44348393D01*
X41723320Y-44327350D01*
X41712830Y-44305171D01*
X41704565Y-44282072D01*
X41698604Y-44258273D01*
X41695004Y-44234005D01*
X41693800Y-44209501D01*
X41693800Y-43309499D01*
X41695004Y-43284995D01*
X41698604Y-43260727D01*
X41704565Y-43236928D01*
X41712830Y-43213829D01*
X41723320Y-43191650D01*
X41735932Y-43170607D01*
X41750547Y-43150901D01*
X41767023Y-43132723D01*
X41785201Y-43116247D01*
X41804907Y-43101632D01*
X41825950Y-43089020D01*
X41848129Y-43078530D01*
X41871228Y-43070265D01*
X41895027Y-43064304D01*
X41919295Y-43060704D01*
X41943799Y-43059500D01*
X42593801Y-43059500D01*
X42618305Y-43060704D01*
G37*
G36*
X102668305Y-64960704D02*
G01*
X102692573Y-64964304D01*
X102716372Y-64970265D01*
X102739471Y-64978530D01*
X102761650Y-64989020D01*
X102782693Y-65001632D01*
X102802399Y-65016247D01*
X102820577Y-65032723D01*
X102837053Y-65050901D01*
X102851668Y-65070607D01*
X102864280Y-65091650D01*
X102874770Y-65113829D01*
X102883035Y-65136928D01*
X102888996Y-65160727D01*
X102892596Y-65184995D01*
X102893800Y-65209499D01*
X102893800Y-66109501D01*
X102892596Y-66134005D01*
X102888996Y-66158273D01*
X102883035Y-66182072D01*
X102874770Y-66205171D01*
X102864280Y-66227350D01*
X102851668Y-66248393D01*
X102837053Y-66268099D01*
X102820577Y-66286277D01*
X102802399Y-66302753D01*
X102782693Y-66317368D01*
X102761650Y-66329980D01*
X102739471Y-66340470D01*
X102716372Y-66348735D01*
X102692573Y-66354696D01*
X102668305Y-66358296D01*
X102643801Y-66359500D01*
X101993799Y-66359500D01*
X101969295Y-66358296D01*
X101945027Y-66354696D01*
X101921228Y-66348735D01*
X101898129Y-66340470D01*
X101875950Y-66329980D01*
X101854907Y-66317368D01*
X101835201Y-66302753D01*
X101817023Y-66286277D01*
X101800547Y-66268099D01*
X101785932Y-66248393D01*
X101773320Y-66227350D01*
X101762830Y-66205171D01*
X101754565Y-66182072D01*
X101748604Y-66158273D01*
X101745004Y-66134005D01*
X101743800Y-66109501D01*
X101743800Y-65209499D01*
X101745004Y-65184995D01*
X101748604Y-65160727D01*
X101754565Y-65136928D01*
X101762830Y-65113829D01*
X101773320Y-65091650D01*
X101785932Y-65070607D01*
X101800547Y-65050901D01*
X101817023Y-65032723D01*
X101835201Y-65016247D01*
X101854907Y-65001632D01*
X101875950Y-64989020D01*
X101898129Y-64978530D01*
X101921228Y-64970265D01*
X101945027Y-64964304D01*
X101969295Y-64960704D01*
X101993799Y-64959500D01*
X102643801Y-64959500D01*
X102668305Y-64960704D01*
G37*
G36*
X104718305Y-64960704D02*
G01*
X104742573Y-64964304D01*
X104766372Y-64970265D01*
X104789471Y-64978530D01*
X104811650Y-64989020D01*
X104832693Y-65001632D01*
X104852399Y-65016247D01*
X104870577Y-65032723D01*
X104887053Y-65050901D01*
X104901668Y-65070607D01*
X104914280Y-65091650D01*
X104924770Y-65113829D01*
X104933035Y-65136928D01*
X104938996Y-65160727D01*
X104942596Y-65184995D01*
X104943800Y-65209499D01*
X104943800Y-66109501D01*
X104942596Y-66134005D01*
X104938996Y-66158273D01*
X104933035Y-66182072D01*
X104924770Y-66205171D01*
X104914280Y-66227350D01*
X104901668Y-66248393D01*
X104887053Y-66268099D01*
X104870577Y-66286277D01*
X104852399Y-66302753D01*
X104832693Y-66317368D01*
X104811650Y-66329980D01*
X104789471Y-66340470D01*
X104766372Y-66348735D01*
X104742573Y-66354696D01*
X104718305Y-66358296D01*
X104693801Y-66359500D01*
X104043799Y-66359500D01*
X104019295Y-66358296D01*
X103995027Y-66354696D01*
X103971228Y-66348735D01*
X103948129Y-66340470D01*
X103925950Y-66329980D01*
X103904907Y-66317368D01*
X103885201Y-66302753D01*
X103867023Y-66286277D01*
X103850547Y-66268099D01*
X103835932Y-66248393D01*
X103823320Y-66227350D01*
X103812830Y-66205171D01*
X103804565Y-66182072D01*
X103798604Y-66158273D01*
X103795004Y-66134005D01*
X103793800Y-66109501D01*
X103793800Y-65209499D01*
X103795004Y-65184995D01*
X103798604Y-65160727D01*
X103804565Y-65136928D01*
X103812830Y-65113829D01*
X103823320Y-65091650D01*
X103835932Y-65070607D01*
X103850547Y-65050901D01*
X103867023Y-65032723D01*
X103885201Y-65016247D01*
X103904907Y-65001632D01*
X103925950Y-64989020D01*
X103948129Y-64978530D01*
X103971228Y-64970265D01*
X103995027Y-64964304D01*
X104019295Y-64960704D01*
X104043799Y-64959500D01*
X104693801Y-64959500D01*
X104718305Y-64960704D01*
G37*
G36*
X71993305Y-62860704D02*
G01*
X72017573Y-62864304D01*
X72041372Y-62870265D01*
X72064471Y-62878530D01*
X72086650Y-62889020D01*
X72107693Y-62901632D01*
X72127399Y-62916247D01*
X72145577Y-62932723D01*
X72162053Y-62950901D01*
X72176668Y-62970607D01*
X72189280Y-62991650D01*
X72199770Y-63013829D01*
X72208035Y-63036928D01*
X72213996Y-63060727D01*
X72217596Y-63084995D01*
X72218800Y-63109499D01*
X72218800Y-64009501D01*
X72217596Y-64034005D01*
X72213996Y-64058273D01*
X72208035Y-64082072D01*
X72199770Y-64105171D01*
X72189280Y-64127350D01*
X72176668Y-64148393D01*
X72162053Y-64168099D01*
X72145577Y-64186277D01*
X72127399Y-64202753D01*
X72107693Y-64217368D01*
X72086650Y-64229980D01*
X72064471Y-64240470D01*
X72041372Y-64248735D01*
X72017573Y-64254696D01*
X71993305Y-64258296D01*
X71968801Y-64259500D01*
X71318799Y-64259500D01*
X71294295Y-64258296D01*
X71270027Y-64254696D01*
X71246228Y-64248735D01*
X71223129Y-64240470D01*
X71200950Y-64229980D01*
X71179907Y-64217368D01*
X71160201Y-64202753D01*
X71142023Y-64186277D01*
X71125547Y-64168099D01*
X71110932Y-64148393D01*
X71098320Y-64127350D01*
X71087830Y-64105171D01*
X71079565Y-64082072D01*
X71073604Y-64058273D01*
X71070004Y-64034005D01*
X71068800Y-64009501D01*
X71068800Y-63109499D01*
X71070004Y-63084995D01*
X71073604Y-63060727D01*
X71079565Y-63036928D01*
X71087830Y-63013829D01*
X71098320Y-62991650D01*
X71110932Y-62970607D01*
X71125547Y-62950901D01*
X71142023Y-62932723D01*
X71160201Y-62916247D01*
X71179907Y-62901632D01*
X71200950Y-62889020D01*
X71223129Y-62878530D01*
X71246228Y-62870265D01*
X71270027Y-62864304D01*
X71294295Y-62860704D01*
X71318799Y-62859500D01*
X71968801Y-62859500D01*
X71993305Y-62860704D01*
G37*
G36*
X69943305Y-62860704D02*
G01*
X69967573Y-62864304D01*
X69991372Y-62870265D01*
X70014471Y-62878530D01*
X70036650Y-62889020D01*
X70057693Y-62901632D01*
X70077399Y-62916247D01*
X70095577Y-62932723D01*
X70112053Y-62950901D01*
X70126668Y-62970607D01*
X70139280Y-62991650D01*
X70149770Y-63013829D01*
X70158035Y-63036928D01*
X70163996Y-63060727D01*
X70167596Y-63084995D01*
X70168800Y-63109499D01*
X70168800Y-64009501D01*
X70167596Y-64034005D01*
X70163996Y-64058273D01*
X70158035Y-64082072D01*
X70149770Y-64105171D01*
X70139280Y-64127350D01*
X70126668Y-64148393D01*
X70112053Y-64168099D01*
X70095577Y-64186277D01*
X70077399Y-64202753D01*
X70057693Y-64217368D01*
X70036650Y-64229980D01*
X70014471Y-64240470D01*
X69991372Y-64248735D01*
X69967573Y-64254696D01*
X69943305Y-64258296D01*
X69918801Y-64259500D01*
X69268799Y-64259500D01*
X69244295Y-64258296D01*
X69220027Y-64254696D01*
X69196228Y-64248735D01*
X69173129Y-64240470D01*
X69150950Y-64229980D01*
X69129907Y-64217368D01*
X69110201Y-64202753D01*
X69092023Y-64186277D01*
X69075547Y-64168099D01*
X69060932Y-64148393D01*
X69048320Y-64127350D01*
X69037830Y-64105171D01*
X69029565Y-64082072D01*
X69023604Y-64058273D01*
X69020004Y-64034005D01*
X69018800Y-64009501D01*
X69018800Y-63109499D01*
X69020004Y-63084995D01*
X69023604Y-63060727D01*
X69029565Y-63036928D01*
X69037830Y-63013829D01*
X69048320Y-62991650D01*
X69060932Y-62970607D01*
X69075547Y-62950901D01*
X69092023Y-62932723D01*
X69110201Y-62916247D01*
X69129907Y-62901632D01*
X69150950Y-62889020D01*
X69173129Y-62878530D01*
X69196228Y-62870265D01*
X69220027Y-62864304D01*
X69244295Y-62860704D01*
X69268799Y-62859500D01*
X69918801Y-62859500D01*
X69943305Y-62860704D01*
G37*
G36*
X71993305Y-69460704D02*
G01*
X72017573Y-69464304D01*
X72041372Y-69470265D01*
X72064471Y-69478530D01*
X72086650Y-69489020D01*
X72107693Y-69501632D01*
X72127399Y-69516247D01*
X72145577Y-69532723D01*
X72162053Y-69550901D01*
X72176668Y-69570607D01*
X72189280Y-69591650D01*
X72199770Y-69613829D01*
X72208035Y-69636928D01*
X72213996Y-69660727D01*
X72217596Y-69684995D01*
X72218800Y-69709499D01*
X72218800Y-70609501D01*
X72217596Y-70634005D01*
X72213996Y-70658273D01*
X72208035Y-70682072D01*
X72199770Y-70705171D01*
X72189280Y-70727350D01*
X72176668Y-70748393D01*
X72162053Y-70768099D01*
X72145577Y-70786277D01*
X72127399Y-70802753D01*
X72107693Y-70817368D01*
X72086650Y-70829980D01*
X72064471Y-70840470D01*
X72041372Y-70848735D01*
X72017573Y-70854696D01*
X71993305Y-70858296D01*
X71968801Y-70859500D01*
X71318799Y-70859500D01*
X71294295Y-70858296D01*
X71270027Y-70854696D01*
X71246228Y-70848735D01*
X71223129Y-70840470D01*
X71200950Y-70829980D01*
X71179907Y-70817368D01*
X71160201Y-70802753D01*
X71142023Y-70786277D01*
X71125547Y-70768099D01*
X71110932Y-70748393D01*
X71098320Y-70727350D01*
X71087830Y-70705171D01*
X71079565Y-70682072D01*
X71073604Y-70658273D01*
X71070004Y-70634005D01*
X71068800Y-70609501D01*
X71068800Y-69709499D01*
X71070004Y-69684995D01*
X71073604Y-69660727D01*
X71079565Y-69636928D01*
X71087830Y-69613829D01*
X71098320Y-69591650D01*
X71110932Y-69570607D01*
X71125547Y-69550901D01*
X71142023Y-69532723D01*
X71160201Y-69516247D01*
X71179907Y-69501632D01*
X71200950Y-69489020D01*
X71223129Y-69478530D01*
X71246228Y-69470265D01*
X71270027Y-69464304D01*
X71294295Y-69460704D01*
X71318799Y-69459500D01*
X71968801Y-69459500D01*
X71993305Y-69460704D01*
G37*
G36*
X69943305Y-69460704D02*
G01*
X69967573Y-69464304D01*
X69991372Y-69470265D01*
X70014471Y-69478530D01*
X70036650Y-69489020D01*
X70057693Y-69501632D01*
X70077399Y-69516247D01*
X70095577Y-69532723D01*
X70112053Y-69550901D01*
X70126668Y-69570607D01*
X70139280Y-69591650D01*
X70149770Y-69613829D01*
X70158035Y-69636928D01*
X70163996Y-69660727D01*
X70167596Y-69684995D01*
X70168800Y-69709499D01*
X70168800Y-70609501D01*
X70167596Y-70634005D01*
X70163996Y-70658273D01*
X70158035Y-70682072D01*
X70149770Y-70705171D01*
X70139280Y-70727350D01*
X70126668Y-70748393D01*
X70112053Y-70768099D01*
X70095577Y-70786277D01*
X70077399Y-70802753D01*
X70057693Y-70817368D01*
X70036650Y-70829980D01*
X70014471Y-70840470D01*
X69991372Y-70848735D01*
X69967573Y-70854696D01*
X69943305Y-70858296D01*
X69918801Y-70859500D01*
X69268799Y-70859500D01*
X69244295Y-70858296D01*
X69220027Y-70854696D01*
X69196228Y-70848735D01*
X69173129Y-70840470D01*
X69150950Y-70829980D01*
X69129907Y-70817368D01*
X69110201Y-70802753D01*
X69092023Y-70786277D01*
X69075547Y-70768099D01*
X69060932Y-70748393D01*
X69048320Y-70727350D01*
X69037830Y-70705171D01*
X69029565Y-70682072D01*
X69023604Y-70658273D01*
X69020004Y-70634005D01*
X69018800Y-70609501D01*
X69018800Y-69709499D01*
X69020004Y-69684995D01*
X69023604Y-69660727D01*
X69029565Y-69636928D01*
X69037830Y-69613829D01*
X69048320Y-69591650D01*
X69060932Y-69570607D01*
X69075547Y-69550901D01*
X69092023Y-69532723D01*
X69110201Y-69516247D01*
X69129907Y-69501632D01*
X69150950Y-69489020D01*
X69173129Y-69478530D01*
X69196228Y-69470265D01*
X69220027Y-69464304D01*
X69244295Y-69460704D01*
X69268799Y-69459500D01*
X69918801Y-69459500D01*
X69943305Y-69460704D01*
G37*
G36*
X65493305Y-67060704D02*
G01*
X65517573Y-67064304D01*
X65541372Y-67070265D01*
X65564471Y-67078530D01*
X65586650Y-67089020D01*
X65607693Y-67101632D01*
X65627399Y-67116247D01*
X65645577Y-67132723D01*
X65662053Y-67150901D01*
X65676668Y-67170607D01*
X65689280Y-67191650D01*
X65699770Y-67213829D01*
X65708035Y-67236928D01*
X65713996Y-67260727D01*
X65717596Y-67284995D01*
X65718800Y-67309499D01*
X65718800Y-68209501D01*
X65717596Y-68234005D01*
X65713996Y-68258273D01*
X65708035Y-68282072D01*
X65699770Y-68305171D01*
X65689280Y-68327350D01*
X65676668Y-68348393D01*
X65662053Y-68368099D01*
X65645577Y-68386277D01*
X65627399Y-68402753D01*
X65607693Y-68417368D01*
X65586650Y-68429980D01*
X65564471Y-68440470D01*
X65541372Y-68448735D01*
X65517573Y-68454696D01*
X65493305Y-68458296D01*
X65468801Y-68459500D01*
X64818799Y-68459500D01*
X64794295Y-68458296D01*
X64770027Y-68454696D01*
X64746228Y-68448735D01*
X64723129Y-68440470D01*
X64700950Y-68429980D01*
X64679907Y-68417368D01*
X64660201Y-68402753D01*
X64642023Y-68386277D01*
X64625547Y-68368099D01*
X64610932Y-68348393D01*
X64598320Y-68327350D01*
X64587830Y-68305171D01*
X64579565Y-68282072D01*
X64573604Y-68258273D01*
X64570004Y-68234005D01*
X64568800Y-68209501D01*
X64568800Y-67309499D01*
X64570004Y-67284995D01*
X64573604Y-67260727D01*
X64579565Y-67236928D01*
X64587830Y-67213829D01*
X64598320Y-67191650D01*
X64610932Y-67170607D01*
X64625547Y-67150901D01*
X64642023Y-67132723D01*
X64660201Y-67116247D01*
X64679907Y-67101632D01*
X64700950Y-67089020D01*
X64723129Y-67078530D01*
X64746228Y-67070265D01*
X64770027Y-67064304D01*
X64794295Y-67060704D01*
X64818799Y-67059500D01*
X65468801Y-67059500D01*
X65493305Y-67060704D01*
G37*
G36*
X67543305Y-67060704D02*
G01*
X67567573Y-67064304D01*
X67591372Y-67070265D01*
X67614471Y-67078530D01*
X67636650Y-67089020D01*
X67657693Y-67101632D01*
X67677399Y-67116247D01*
X67695577Y-67132723D01*
X67712053Y-67150901D01*
X67726668Y-67170607D01*
X67739280Y-67191650D01*
X67749770Y-67213829D01*
X67758035Y-67236928D01*
X67763996Y-67260727D01*
X67767596Y-67284995D01*
X67768800Y-67309499D01*
X67768800Y-68209501D01*
X67767596Y-68234005D01*
X67763996Y-68258273D01*
X67758035Y-68282072D01*
X67749770Y-68305171D01*
X67739280Y-68327350D01*
X67726668Y-68348393D01*
X67712053Y-68368099D01*
X67695577Y-68386277D01*
X67677399Y-68402753D01*
X67657693Y-68417368D01*
X67636650Y-68429980D01*
X67614471Y-68440470D01*
X67591372Y-68448735D01*
X67567573Y-68454696D01*
X67543305Y-68458296D01*
X67518801Y-68459500D01*
X66868799Y-68459500D01*
X66844295Y-68458296D01*
X66820027Y-68454696D01*
X66796228Y-68448735D01*
X66773129Y-68440470D01*
X66750950Y-68429980D01*
X66729907Y-68417368D01*
X66710201Y-68402753D01*
X66692023Y-68386277D01*
X66675547Y-68368099D01*
X66660932Y-68348393D01*
X66648320Y-68327350D01*
X66637830Y-68305171D01*
X66629565Y-68282072D01*
X66623604Y-68258273D01*
X66620004Y-68234005D01*
X66618800Y-68209501D01*
X66618800Y-67309499D01*
X66620004Y-67284995D01*
X66623604Y-67260727D01*
X66629565Y-67236928D01*
X66637830Y-67213829D01*
X66648320Y-67191650D01*
X66660932Y-67170607D01*
X66675547Y-67150901D01*
X66692023Y-67132723D01*
X66710201Y-67116247D01*
X66729907Y-67101632D01*
X66750950Y-67089020D01*
X66773129Y-67078530D01*
X66796228Y-67070265D01*
X66820027Y-67064304D01*
X66844295Y-67060704D01*
X66868799Y-67059500D01*
X67518801Y-67059500D01*
X67543305Y-67060704D01*
G37*
G36*
X65493305Y-71560704D02*
G01*
X65517573Y-71564304D01*
X65541372Y-71570265D01*
X65564471Y-71578530D01*
X65586650Y-71589020D01*
X65607693Y-71601632D01*
X65627399Y-71616247D01*
X65645577Y-71632723D01*
X65662053Y-71650901D01*
X65676668Y-71670607D01*
X65689280Y-71691650D01*
X65699770Y-71713829D01*
X65708035Y-71736928D01*
X65713996Y-71760727D01*
X65717596Y-71784995D01*
X65718800Y-71809499D01*
X65718800Y-72709501D01*
X65717596Y-72734005D01*
X65713996Y-72758273D01*
X65708035Y-72782072D01*
X65699770Y-72805171D01*
X65689280Y-72827350D01*
X65676668Y-72848393D01*
X65662053Y-72868099D01*
X65645577Y-72886277D01*
X65627399Y-72902753D01*
X65607693Y-72917368D01*
X65586650Y-72929980D01*
X65564471Y-72940470D01*
X65541372Y-72948735D01*
X65517573Y-72954696D01*
X65493305Y-72958296D01*
X65468801Y-72959500D01*
X64818799Y-72959500D01*
X64794295Y-72958296D01*
X64770027Y-72954696D01*
X64746228Y-72948735D01*
X64723129Y-72940470D01*
X64700950Y-72929980D01*
X64679907Y-72917368D01*
X64660201Y-72902753D01*
X64642023Y-72886277D01*
X64625547Y-72868099D01*
X64610932Y-72848393D01*
X64598320Y-72827350D01*
X64587830Y-72805171D01*
X64579565Y-72782072D01*
X64573604Y-72758273D01*
X64570004Y-72734005D01*
X64568800Y-72709501D01*
X64568800Y-71809499D01*
X64570004Y-71784995D01*
X64573604Y-71760727D01*
X64579565Y-71736928D01*
X64587830Y-71713829D01*
X64598320Y-71691650D01*
X64610932Y-71670607D01*
X64625547Y-71650901D01*
X64642023Y-71632723D01*
X64660201Y-71616247D01*
X64679907Y-71601632D01*
X64700950Y-71589020D01*
X64723129Y-71578530D01*
X64746228Y-71570265D01*
X64770027Y-71564304D01*
X64794295Y-71560704D01*
X64818799Y-71559500D01*
X65468801Y-71559500D01*
X65493305Y-71560704D01*
G37*
G36*
X67543305Y-71560704D02*
G01*
X67567573Y-71564304D01*
X67591372Y-71570265D01*
X67614471Y-71578530D01*
X67636650Y-71589020D01*
X67657693Y-71601632D01*
X67677399Y-71616247D01*
X67695577Y-71632723D01*
X67712053Y-71650901D01*
X67726668Y-71670607D01*
X67739280Y-71691650D01*
X67749770Y-71713829D01*
X67758035Y-71736928D01*
X67763996Y-71760727D01*
X67767596Y-71784995D01*
X67768800Y-71809499D01*
X67768800Y-72709501D01*
X67767596Y-72734005D01*
X67763996Y-72758273D01*
X67758035Y-72782072D01*
X67749770Y-72805171D01*
X67739280Y-72827350D01*
X67726668Y-72848393D01*
X67712053Y-72868099D01*
X67695577Y-72886277D01*
X67677399Y-72902753D01*
X67657693Y-72917368D01*
X67636650Y-72929980D01*
X67614471Y-72940470D01*
X67591372Y-72948735D01*
X67567573Y-72954696D01*
X67543305Y-72958296D01*
X67518801Y-72959500D01*
X66868799Y-72959500D01*
X66844295Y-72958296D01*
X66820027Y-72954696D01*
X66796228Y-72948735D01*
X66773129Y-72940470D01*
X66750950Y-72929980D01*
X66729907Y-72917368D01*
X66710201Y-72902753D01*
X66692023Y-72886277D01*
X66675547Y-72868099D01*
X66660932Y-72848393D01*
X66648320Y-72827350D01*
X66637830Y-72805171D01*
X66629565Y-72782072D01*
X66623604Y-72758273D01*
X66620004Y-72734005D01*
X66618800Y-72709501D01*
X66618800Y-71809499D01*
X66620004Y-71784995D01*
X66623604Y-71760727D01*
X66629565Y-71736928D01*
X66637830Y-71713829D01*
X66648320Y-71691650D01*
X66660932Y-71670607D01*
X66675547Y-71650901D01*
X66692023Y-71632723D01*
X66710201Y-71616247D01*
X66729907Y-71601632D01*
X66750950Y-71589020D01*
X66773129Y-71578530D01*
X66796228Y-71570265D01*
X66820027Y-71564304D01*
X66844295Y-71560704D01*
X66868799Y-71559500D01*
X67518801Y-71559500D01*
X67543305Y-71560704D01*
G37*
G36*
X102668305Y-59860704D02*
G01*
X102692573Y-59864304D01*
X102716372Y-59870265D01*
X102739471Y-59878530D01*
X102761650Y-59889020D01*
X102782693Y-59901632D01*
X102802399Y-59916247D01*
X102820577Y-59932723D01*
X102837053Y-59950901D01*
X102851668Y-59970607D01*
X102864280Y-59991650D01*
X102874770Y-60013829D01*
X102883035Y-60036928D01*
X102888996Y-60060727D01*
X102892596Y-60084995D01*
X102893800Y-60109499D01*
X102893800Y-61009501D01*
X102892596Y-61034005D01*
X102888996Y-61058273D01*
X102883035Y-61082072D01*
X102874770Y-61105171D01*
X102864280Y-61127350D01*
X102851668Y-61148393D01*
X102837053Y-61168099D01*
X102820577Y-61186277D01*
X102802399Y-61202753D01*
X102782693Y-61217368D01*
X102761650Y-61229980D01*
X102739471Y-61240470D01*
X102716372Y-61248735D01*
X102692573Y-61254696D01*
X102668305Y-61258296D01*
X102643801Y-61259500D01*
X101993799Y-61259500D01*
X101969295Y-61258296D01*
X101945027Y-61254696D01*
X101921228Y-61248735D01*
X101898129Y-61240470D01*
X101875950Y-61229980D01*
X101854907Y-61217368D01*
X101835201Y-61202753D01*
X101817023Y-61186277D01*
X101800547Y-61168099D01*
X101785932Y-61148393D01*
X101773320Y-61127350D01*
X101762830Y-61105171D01*
X101754565Y-61082072D01*
X101748604Y-61058273D01*
X101745004Y-61034005D01*
X101743800Y-61009501D01*
X101743800Y-60109499D01*
X101745004Y-60084995D01*
X101748604Y-60060727D01*
X101754565Y-60036928D01*
X101762830Y-60013829D01*
X101773320Y-59991650D01*
X101785932Y-59970607D01*
X101800547Y-59950901D01*
X101817023Y-59932723D01*
X101835201Y-59916247D01*
X101854907Y-59901632D01*
X101875950Y-59889020D01*
X101898129Y-59878530D01*
X101921228Y-59870265D01*
X101945027Y-59864304D01*
X101969295Y-59860704D01*
X101993799Y-59859500D01*
X102643801Y-59859500D01*
X102668305Y-59860704D01*
G37*
G36*
X104718305Y-59860704D02*
G01*
X104742573Y-59864304D01*
X104766372Y-59870265D01*
X104789471Y-59878530D01*
X104811650Y-59889020D01*
X104832693Y-59901632D01*
X104852399Y-59916247D01*
X104870577Y-59932723D01*
X104887053Y-59950901D01*
X104901668Y-59970607D01*
X104914280Y-59991650D01*
X104924770Y-60013829D01*
X104933035Y-60036928D01*
X104938996Y-60060727D01*
X104942596Y-60084995D01*
X104943800Y-60109499D01*
X104943800Y-61009501D01*
X104942596Y-61034005D01*
X104938996Y-61058273D01*
X104933035Y-61082072D01*
X104924770Y-61105171D01*
X104914280Y-61127350D01*
X104901668Y-61148393D01*
X104887053Y-61168099D01*
X104870577Y-61186277D01*
X104852399Y-61202753D01*
X104832693Y-61217368D01*
X104811650Y-61229980D01*
X104789471Y-61240470D01*
X104766372Y-61248735D01*
X104742573Y-61254696D01*
X104718305Y-61258296D01*
X104693801Y-61259500D01*
X104043799Y-61259500D01*
X104019295Y-61258296D01*
X103995027Y-61254696D01*
X103971228Y-61248735D01*
X103948129Y-61240470D01*
X103925950Y-61229980D01*
X103904907Y-61217368D01*
X103885201Y-61202753D01*
X103867023Y-61186277D01*
X103850547Y-61168099D01*
X103835932Y-61148393D01*
X103823320Y-61127350D01*
X103812830Y-61105171D01*
X103804565Y-61082072D01*
X103798604Y-61058273D01*
X103795004Y-61034005D01*
X103793800Y-61009501D01*
X103793800Y-60109499D01*
X103795004Y-60084995D01*
X103798604Y-60060727D01*
X103804565Y-60036928D01*
X103812830Y-60013829D01*
X103823320Y-59991650D01*
X103835932Y-59970607D01*
X103850547Y-59950901D01*
X103867023Y-59932723D01*
X103885201Y-59916247D01*
X103904907Y-59901632D01*
X103925950Y-59889020D01*
X103948129Y-59878530D01*
X103971228Y-59870265D01*
X103995027Y-59864304D01*
X104019295Y-59860704D01*
X104043799Y-59859500D01*
X104693801Y-59859500D01*
X104718305Y-59860704D01*
G37*
G36*
X102668305Y-70060704D02*
G01*
X102692573Y-70064304D01*
X102716372Y-70070265D01*
X102739471Y-70078530D01*
X102761650Y-70089020D01*
X102782693Y-70101632D01*
X102802399Y-70116247D01*
X102820577Y-70132723D01*
X102837053Y-70150901D01*
X102851668Y-70170607D01*
X102864280Y-70191650D01*
X102874770Y-70213829D01*
X102883035Y-70236928D01*
X102888996Y-70260727D01*
X102892596Y-70284995D01*
X102893800Y-70309499D01*
X102893800Y-71209501D01*
X102892596Y-71234005D01*
X102888996Y-71258273D01*
X102883035Y-71282072D01*
X102874770Y-71305171D01*
X102864280Y-71327350D01*
X102851668Y-71348393D01*
X102837053Y-71368099D01*
X102820577Y-71386277D01*
X102802399Y-71402753D01*
X102782693Y-71417368D01*
X102761650Y-71429980D01*
X102739471Y-71440470D01*
X102716372Y-71448735D01*
X102692573Y-71454696D01*
X102668305Y-71458296D01*
X102643801Y-71459500D01*
X101993799Y-71459500D01*
X101969295Y-71458296D01*
X101945027Y-71454696D01*
X101921228Y-71448735D01*
X101898129Y-71440470D01*
X101875950Y-71429980D01*
X101854907Y-71417368D01*
X101835201Y-71402753D01*
X101817023Y-71386277D01*
X101800547Y-71368099D01*
X101785932Y-71348393D01*
X101773320Y-71327350D01*
X101762830Y-71305171D01*
X101754565Y-71282072D01*
X101748604Y-71258273D01*
X101745004Y-71234005D01*
X101743800Y-71209501D01*
X101743800Y-70309499D01*
X101745004Y-70284995D01*
X101748604Y-70260727D01*
X101754565Y-70236928D01*
X101762830Y-70213829D01*
X101773320Y-70191650D01*
X101785932Y-70170607D01*
X101800547Y-70150901D01*
X101817023Y-70132723D01*
X101835201Y-70116247D01*
X101854907Y-70101632D01*
X101875950Y-70089020D01*
X101898129Y-70078530D01*
X101921228Y-70070265D01*
X101945027Y-70064304D01*
X101969295Y-70060704D01*
X101993799Y-70059500D01*
X102643801Y-70059500D01*
X102668305Y-70060704D01*
G37*
G36*
X104718305Y-70060704D02*
G01*
X104742573Y-70064304D01*
X104766372Y-70070265D01*
X104789471Y-70078530D01*
X104811650Y-70089020D01*
X104832693Y-70101632D01*
X104852399Y-70116247D01*
X104870577Y-70132723D01*
X104887053Y-70150901D01*
X104901668Y-70170607D01*
X104914280Y-70191650D01*
X104924770Y-70213829D01*
X104933035Y-70236928D01*
X104938996Y-70260727D01*
X104942596Y-70284995D01*
X104943800Y-70309499D01*
X104943800Y-71209501D01*
X104942596Y-71234005D01*
X104938996Y-71258273D01*
X104933035Y-71282072D01*
X104924770Y-71305171D01*
X104914280Y-71327350D01*
X104901668Y-71348393D01*
X104887053Y-71368099D01*
X104870577Y-71386277D01*
X104852399Y-71402753D01*
X104832693Y-71417368D01*
X104811650Y-71429980D01*
X104789471Y-71440470D01*
X104766372Y-71448735D01*
X104742573Y-71454696D01*
X104718305Y-71458296D01*
X104693801Y-71459500D01*
X104043799Y-71459500D01*
X104019295Y-71458296D01*
X103995027Y-71454696D01*
X103971228Y-71448735D01*
X103948129Y-71440470D01*
X103925950Y-71429980D01*
X103904907Y-71417368D01*
X103885201Y-71402753D01*
X103867023Y-71386277D01*
X103850547Y-71368099D01*
X103835932Y-71348393D01*
X103823320Y-71327350D01*
X103812830Y-71305171D01*
X103804565Y-71282072D01*
X103798604Y-71258273D01*
X103795004Y-71234005D01*
X103793800Y-71209501D01*
X103793800Y-70309499D01*
X103795004Y-70284995D01*
X103798604Y-70260727D01*
X103804565Y-70236928D01*
X103812830Y-70213829D01*
X103823320Y-70191650D01*
X103835932Y-70170607D01*
X103850547Y-70150901D01*
X103867023Y-70132723D01*
X103885201Y-70116247D01*
X103904907Y-70101632D01*
X103925950Y-70089020D01*
X103948129Y-70078530D01*
X103971228Y-70070265D01*
X103995027Y-70064304D01*
X104019295Y-70060704D01*
X104043799Y-70059500D01*
X104693801Y-70059500D01*
X104718305Y-70060704D01*
G37*
G36*
X69943305Y-75560704D02*
G01*
X69967573Y-75564304D01*
X69991372Y-75570265D01*
X70014471Y-75578530D01*
X70036650Y-75589020D01*
X70057693Y-75601632D01*
X70077399Y-75616247D01*
X70095577Y-75632723D01*
X70112053Y-75650901D01*
X70126668Y-75670607D01*
X70139280Y-75691650D01*
X70149770Y-75713829D01*
X70158035Y-75736928D01*
X70163996Y-75760727D01*
X70167596Y-75784995D01*
X70168800Y-75809499D01*
X70168800Y-76709501D01*
X70167596Y-76734005D01*
X70163996Y-76758273D01*
X70158035Y-76782072D01*
X70149770Y-76805171D01*
X70139280Y-76827350D01*
X70126668Y-76848393D01*
X70112053Y-76868099D01*
X70095577Y-76886277D01*
X70077399Y-76902753D01*
X70057693Y-76917368D01*
X70036650Y-76929980D01*
X70014471Y-76940470D01*
X69991372Y-76948735D01*
X69967573Y-76954696D01*
X69943305Y-76958296D01*
X69918801Y-76959500D01*
X69268799Y-76959500D01*
X69244295Y-76958296D01*
X69220027Y-76954696D01*
X69196228Y-76948735D01*
X69173129Y-76940470D01*
X69150950Y-76929980D01*
X69129907Y-76917368D01*
X69110201Y-76902753D01*
X69092023Y-76886277D01*
X69075547Y-76868099D01*
X69060932Y-76848393D01*
X69048320Y-76827350D01*
X69037830Y-76805171D01*
X69029565Y-76782072D01*
X69023604Y-76758273D01*
X69020004Y-76734005D01*
X69018800Y-76709501D01*
X69018800Y-75809499D01*
X69020004Y-75784995D01*
X69023604Y-75760727D01*
X69029565Y-75736928D01*
X69037830Y-75713829D01*
X69048320Y-75691650D01*
X69060932Y-75670607D01*
X69075547Y-75650901D01*
X69092023Y-75632723D01*
X69110201Y-75616247D01*
X69129907Y-75601632D01*
X69150950Y-75589020D01*
X69173129Y-75578530D01*
X69196228Y-75570265D01*
X69220027Y-75564304D01*
X69244295Y-75560704D01*
X69268799Y-75559500D01*
X69918801Y-75559500D01*
X69943305Y-75560704D01*
G37*
G36*
X71993305Y-75560704D02*
G01*
X72017573Y-75564304D01*
X72041372Y-75570265D01*
X72064471Y-75578530D01*
X72086650Y-75589020D01*
X72107693Y-75601632D01*
X72127399Y-75616247D01*
X72145577Y-75632723D01*
X72162053Y-75650901D01*
X72176668Y-75670607D01*
X72189280Y-75691650D01*
X72199770Y-75713829D01*
X72208035Y-75736928D01*
X72213996Y-75760727D01*
X72217596Y-75784995D01*
X72218800Y-75809499D01*
X72218800Y-76709501D01*
X72217596Y-76734005D01*
X72213996Y-76758273D01*
X72208035Y-76782072D01*
X72199770Y-76805171D01*
X72189280Y-76827350D01*
X72176668Y-76848393D01*
X72162053Y-76868099D01*
X72145577Y-76886277D01*
X72127399Y-76902753D01*
X72107693Y-76917368D01*
X72086650Y-76929980D01*
X72064471Y-76940470D01*
X72041372Y-76948735D01*
X72017573Y-76954696D01*
X71993305Y-76958296D01*
X71968801Y-76959500D01*
X71318799Y-76959500D01*
X71294295Y-76958296D01*
X71270027Y-76954696D01*
X71246228Y-76948735D01*
X71223129Y-76940470D01*
X71200950Y-76929980D01*
X71179907Y-76917368D01*
X71160201Y-76902753D01*
X71142023Y-76886277D01*
X71125547Y-76868099D01*
X71110932Y-76848393D01*
X71098320Y-76827350D01*
X71087830Y-76805171D01*
X71079565Y-76782072D01*
X71073604Y-76758273D01*
X71070004Y-76734005D01*
X71068800Y-76709501D01*
X71068800Y-75809499D01*
X71070004Y-75784995D01*
X71073604Y-75760727D01*
X71079565Y-75736928D01*
X71087830Y-75713829D01*
X71098320Y-75691650D01*
X71110932Y-75670607D01*
X71125547Y-75650901D01*
X71142023Y-75632723D01*
X71160201Y-75616247D01*
X71179907Y-75601632D01*
X71200950Y-75589020D01*
X71223129Y-75578530D01*
X71246228Y-75570265D01*
X71270027Y-75564304D01*
X71294295Y-75560704D01*
X71318799Y-75559500D01*
X71968801Y-75559500D01*
X71993305Y-75560704D01*
G37*
G36*
X65493305Y-75960704D02*
G01*
X65517573Y-75964304D01*
X65541372Y-75970265D01*
X65564471Y-75978530D01*
X65586650Y-75989020D01*
X65607693Y-76001632D01*
X65627399Y-76016247D01*
X65645577Y-76032723D01*
X65662053Y-76050901D01*
X65676668Y-76070607D01*
X65689280Y-76091650D01*
X65699770Y-76113829D01*
X65708035Y-76136928D01*
X65713996Y-76160727D01*
X65717596Y-76184995D01*
X65718800Y-76209499D01*
X65718800Y-77109501D01*
X65717596Y-77134005D01*
X65713996Y-77158273D01*
X65708035Y-77182072D01*
X65699770Y-77205171D01*
X65689280Y-77227350D01*
X65676668Y-77248393D01*
X65662053Y-77268099D01*
X65645577Y-77286277D01*
X65627399Y-77302753D01*
X65607693Y-77317368D01*
X65586650Y-77329980D01*
X65564471Y-77340470D01*
X65541372Y-77348735D01*
X65517573Y-77354696D01*
X65493305Y-77358296D01*
X65468801Y-77359500D01*
X64818799Y-77359500D01*
X64794295Y-77358296D01*
X64770027Y-77354696D01*
X64746228Y-77348735D01*
X64723129Y-77340470D01*
X64700950Y-77329980D01*
X64679907Y-77317368D01*
X64660201Y-77302753D01*
X64642023Y-77286277D01*
X64625547Y-77268099D01*
X64610932Y-77248393D01*
X64598320Y-77227350D01*
X64587830Y-77205171D01*
X64579565Y-77182072D01*
X64573604Y-77158273D01*
X64570004Y-77134005D01*
X64568800Y-77109501D01*
X64568800Y-76209499D01*
X64570004Y-76184995D01*
X64573604Y-76160727D01*
X64579565Y-76136928D01*
X64587830Y-76113829D01*
X64598320Y-76091650D01*
X64610932Y-76070607D01*
X64625547Y-76050901D01*
X64642023Y-76032723D01*
X64660201Y-76016247D01*
X64679907Y-76001632D01*
X64700950Y-75989020D01*
X64723129Y-75978530D01*
X64746228Y-75970265D01*
X64770027Y-75964304D01*
X64794295Y-75960704D01*
X64818799Y-75959500D01*
X65468801Y-75959500D01*
X65493305Y-75960704D01*
G37*
G36*
X67543305Y-75960704D02*
G01*
X67567573Y-75964304D01*
X67591372Y-75970265D01*
X67614471Y-75978530D01*
X67636650Y-75989020D01*
X67657693Y-76001632D01*
X67677399Y-76016247D01*
X67695577Y-76032723D01*
X67712053Y-76050901D01*
X67726668Y-76070607D01*
X67739280Y-76091650D01*
X67749770Y-76113829D01*
X67758035Y-76136928D01*
X67763996Y-76160727D01*
X67767596Y-76184995D01*
X67768800Y-76209499D01*
X67768800Y-77109501D01*
X67767596Y-77134005D01*
X67763996Y-77158273D01*
X67758035Y-77182072D01*
X67749770Y-77205171D01*
X67739280Y-77227350D01*
X67726668Y-77248393D01*
X67712053Y-77268099D01*
X67695577Y-77286277D01*
X67677399Y-77302753D01*
X67657693Y-77317368D01*
X67636650Y-77329980D01*
X67614471Y-77340470D01*
X67591372Y-77348735D01*
X67567573Y-77354696D01*
X67543305Y-77358296D01*
X67518801Y-77359500D01*
X66868799Y-77359500D01*
X66844295Y-77358296D01*
X66820027Y-77354696D01*
X66796228Y-77348735D01*
X66773129Y-77340470D01*
X66750950Y-77329980D01*
X66729907Y-77317368D01*
X66710201Y-77302753D01*
X66692023Y-77286277D01*
X66675547Y-77268099D01*
X66660932Y-77248393D01*
X66648320Y-77227350D01*
X66637830Y-77205171D01*
X66629565Y-77182072D01*
X66623604Y-77158273D01*
X66620004Y-77134005D01*
X66618800Y-77109501D01*
X66618800Y-76209499D01*
X66620004Y-76184995D01*
X66623604Y-76160727D01*
X66629565Y-76136928D01*
X66637830Y-76113829D01*
X66648320Y-76091650D01*
X66660932Y-76070607D01*
X66675547Y-76050901D01*
X66692023Y-76032723D01*
X66710201Y-76016247D01*
X66729907Y-76001632D01*
X66750950Y-75989020D01*
X66773129Y-75978530D01*
X66796228Y-75970265D01*
X66820027Y-75964304D01*
X66844295Y-75960704D01*
X66868799Y-75959500D01*
X67518801Y-75959500D01*
X67543305Y-75960704D01*
G37*
G36*
X37343305Y-40760704D02*
G01*
X37367573Y-40764304D01*
X37391372Y-40770265D01*
X37414471Y-40778530D01*
X37436650Y-40789020D01*
X37457693Y-40801632D01*
X37477399Y-40816247D01*
X37495577Y-40832723D01*
X37512053Y-40850901D01*
X37526668Y-40870607D01*
X37539280Y-40891650D01*
X37549770Y-40913829D01*
X37558035Y-40936928D01*
X37563996Y-40960727D01*
X37567596Y-40984995D01*
X37568800Y-41009499D01*
X37568800Y-41909501D01*
X37567596Y-41934005D01*
X37563996Y-41958273D01*
X37558035Y-41982072D01*
X37549770Y-42005171D01*
X37539280Y-42027350D01*
X37526668Y-42048393D01*
X37512053Y-42068099D01*
X37495577Y-42086277D01*
X37477399Y-42102753D01*
X37457693Y-42117368D01*
X37436650Y-42129980D01*
X37414471Y-42140470D01*
X37391372Y-42148735D01*
X37367573Y-42154696D01*
X37343305Y-42158296D01*
X37318801Y-42159500D01*
X36668799Y-42159500D01*
X36644295Y-42158296D01*
X36620027Y-42154696D01*
X36596228Y-42148735D01*
X36573129Y-42140470D01*
X36550950Y-42129980D01*
X36529907Y-42117368D01*
X36510201Y-42102753D01*
X36492023Y-42086277D01*
X36475547Y-42068099D01*
X36460932Y-42048393D01*
X36448320Y-42027350D01*
X36437830Y-42005171D01*
X36429565Y-41982072D01*
X36423604Y-41958273D01*
X36420004Y-41934005D01*
X36418800Y-41909501D01*
X36418800Y-41009499D01*
X36420004Y-40984995D01*
X36423604Y-40960727D01*
X36429565Y-40936928D01*
X36437830Y-40913829D01*
X36448320Y-40891650D01*
X36460932Y-40870607D01*
X36475547Y-40850901D01*
X36492023Y-40832723D01*
X36510201Y-40816247D01*
X36529907Y-40801632D01*
X36550950Y-40789020D01*
X36573129Y-40778530D01*
X36596228Y-40770265D01*
X36620027Y-40764304D01*
X36644295Y-40760704D01*
X36668799Y-40759500D01*
X37318801Y-40759500D01*
X37343305Y-40760704D01*
G37*
G36*
X35293305Y-40760704D02*
G01*
X35317573Y-40764304D01*
X35341372Y-40770265D01*
X35364471Y-40778530D01*
X35386650Y-40789020D01*
X35407693Y-40801632D01*
X35427399Y-40816247D01*
X35445577Y-40832723D01*
X35462053Y-40850901D01*
X35476668Y-40870607D01*
X35489280Y-40891650D01*
X35499770Y-40913829D01*
X35508035Y-40936928D01*
X35513996Y-40960727D01*
X35517596Y-40984995D01*
X35518800Y-41009499D01*
X35518800Y-41909501D01*
X35517596Y-41934005D01*
X35513996Y-41958273D01*
X35508035Y-41982072D01*
X35499770Y-42005171D01*
X35489280Y-42027350D01*
X35476668Y-42048393D01*
X35462053Y-42068099D01*
X35445577Y-42086277D01*
X35427399Y-42102753D01*
X35407693Y-42117368D01*
X35386650Y-42129980D01*
X35364471Y-42140470D01*
X35341372Y-42148735D01*
X35317573Y-42154696D01*
X35293305Y-42158296D01*
X35268801Y-42159500D01*
X34618799Y-42159500D01*
X34594295Y-42158296D01*
X34570027Y-42154696D01*
X34546228Y-42148735D01*
X34523129Y-42140470D01*
X34500950Y-42129980D01*
X34479907Y-42117368D01*
X34460201Y-42102753D01*
X34442023Y-42086277D01*
X34425547Y-42068099D01*
X34410932Y-42048393D01*
X34398320Y-42027350D01*
X34387830Y-42005171D01*
X34379565Y-41982072D01*
X34373604Y-41958273D01*
X34370004Y-41934005D01*
X34368800Y-41909501D01*
X34368800Y-41009499D01*
X34370004Y-40984995D01*
X34373604Y-40960727D01*
X34379565Y-40936928D01*
X34387830Y-40913829D01*
X34398320Y-40891650D01*
X34410932Y-40870607D01*
X34425547Y-40850901D01*
X34442023Y-40832723D01*
X34460201Y-40816247D01*
X34479907Y-40801632D01*
X34500950Y-40789020D01*
X34523129Y-40778530D01*
X34546228Y-40770265D01*
X34570027Y-40764304D01*
X34594295Y-40760704D01*
X34618799Y-40759500D01*
X35268801Y-40759500D01*
X35293305Y-40760704D01*
G37*
G36*
X40568305Y-40860704D02*
G01*
X40592573Y-40864304D01*
X40616372Y-40870265D01*
X40639471Y-40878530D01*
X40661650Y-40889020D01*
X40682693Y-40901632D01*
X40702399Y-40916247D01*
X40720577Y-40932723D01*
X40737053Y-40950901D01*
X40751668Y-40970607D01*
X40764280Y-40991650D01*
X40774770Y-41013829D01*
X40783035Y-41036928D01*
X40788996Y-41060727D01*
X40792596Y-41084995D01*
X40793800Y-41109499D01*
X40793800Y-42009501D01*
X40792596Y-42034005D01*
X40788996Y-42058273D01*
X40783035Y-42082072D01*
X40774770Y-42105171D01*
X40764280Y-42127350D01*
X40751668Y-42148393D01*
X40737053Y-42168099D01*
X40720577Y-42186277D01*
X40702399Y-42202753D01*
X40682693Y-42217368D01*
X40661650Y-42229980D01*
X40639471Y-42240470D01*
X40616372Y-42248735D01*
X40592573Y-42254696D01*
X40568305Y-42258296D01*
X40543801Y-42259500D01*
X39893799Y-42259500D01*
X39869295Y-42258296D01*
X39845027Y-42254696D01*
X39821228Y-42248735D01*
X39798129Y-42240470D01*
X39775950Y-42229980D01*
X39754907Y-42217368D01*
X39735201Y-42202753D01*
X39717023Y-42186277D01*
X39700547Y-42168099D01*
X39685932Y-42148393D01*
X39673320Y-42127350D01*
X39662830Y-42105171D01*
X39654565Y-42082072D01*
X39648604Y-42058273D01*
X39645004Y-42034005D01*
X39643800Y-42009501D01*
X39643800Y-41109499D01*
X39645004Y-41084995D01*
X39648604Y-41060727D01*
X39654565Y-41036928D01*
X39662830Y-41013829D01*
X39673320Y-40991650D01*
X39685932Y-40970607D01*
X39700547Y-40950901D01*
X39717023Y-40932723D01*
X39735201Y-40916247D01*
X39754907Y-40901632D01*
X39775950Y-40889020D01*
X39798129Y-40878530D01*
X39821228Y-40870265D01*
X39845027Y-40864304D01*
X39869295Y-40860704D01*
X39893799Y-40859500D01*
X40543801Y-40859500D01*
X40568305Y-40860704D01*
G37*
G36*
X42618305Y-40860704D02*
G01*
X42642573Y-40864304D01*
X42666372Y-40870265D01*
X42689471Y-40878530D01*
X42711650Y-40889020D01*
X42732693Y-40901632D01*
X42752399Y-40916247D01*
X42770577Y-40932723D01*
X42787053Y-40950901D01*
X42801668Y-40970607D01*
X42814280Y-40991650D01*
X42824770Y-41013829D01*
X42833035Y-41036928D01*
X42838996Y-41060727D01*
X42842596Y-41084995D01*
X42843800Y-41109499D01*
X42843800Y-42009501D01*
X42842596Y-42034005D01*
X42838996Y-42058273D01*
X42833035Y-42082072D01*
X42824770Y-42105171D01*
X42814280Y-42127350D01*
X42801668Y-42148393D01*
X42787053Y-42168099D01*
X42770577Y-42186277D01*
X42752399Y-42202753D01*
X42732693Y-42217368D01*
X42711650Y-42229980D01*
X42689471Y-42240470D01*
X42666372Y-42248735D01*
X42642573Y-42254696D01*
X42618305Y-42258296D01*
X42593801Y-42259500D01*
X41943799Y-42259500D01*
X41919295Y-42258296D01*
X41895027Y-42254696D01*
X41871228Y-42248735D01*
X41848129Y-42240470D01*
X41825950Y-42229980D01*
X41804907Y-42217368D01*
X41785201Y-42202753D01*
X41767023Y-42186277D01*
X41750547Y-42168099D01*
X41735932Y-42148393D01*
X41723320Y-42127350D01*
X41712830Y-42105171D01*
X41704565Y-42082072D01*
X41698604Y-42058273D01*
X41695004Y-42034005D01*
X41693800Y-42009501D01*
X41693800Y-41109499D01*
X41695004Y-41084995D01*
X41698604Y-41060727D01*
X41704565Y-41036928D01*
X41712830Y-41013829D01*
X41723320Y-40991650D01*
X41735932Y-40970607D01*
X41750547Y-40950901D01*
X41767023Y-40932723D01*
X41785201Y-40916247D01*
X41804907Y-40901632D01*
X41825950Y-40889020D01*
X41848129Y-40878530D01*
X41871228Y-40870265D01*
X41895027Y-40864304D01*
X41919295Y-40860704D01*
X41943799Y-40859500D01*
X42593801Y-40859500D01*
X42618305Y-40860704D01*
G37*
G36*
X47668305Y-40860704D02*
G01*
X47692573Y-40864304D01*
X47716372Y-40870265D01*
X47739471Y-40878530D01*
X47761650Y-40889020D01*
X47782693Y-40901632D01*
X47802399Y-40916247D01*
X47820577Y-40932723D01*
X47837053Y-40950901D01*
X47851668Y-40970607D01*
X47864280Y-40991650D01*
X47874770Y-41013829D01*
X47883035Y-41036928D01*
X47888996Y-41060727D01*
X47892596Y-41084995D01*
X47893800Y-41109499D01*
X47893800Y-42009501D01*
X47892596Y-42034005D01*
X47888996Y-42058273D01*
X47883035Y-42082072D01*
X47874770Y-42105171D01*
X47864280Y-42127350D01*
X47851668Y-42148393D01*
X47837053Y-42168099D01*
X47820577Y-42186277D01*
X47802399Y-42202753D01*
X47782693Y-42217368D01*
X47761650Y-42229980D01*
X47739471Y-42240470D01*
X47716372Y-42248735D01*
X47692573Y-42254696D01*
X47668305Y-42258296D01*
X47643801Y-42259500D01*
X46993799Y-42259500D01*
X46969295Y-42258296D01*
X46945027Y-42254696D01*
X46921228Y-42248735D01*
X46898129Y-42240470D01*
X46875950Y-42229980D01*
X46854907Y-42217368D01*
X46835201Y-42202753D01*
X46817023Y-42186277D01*
X46800547Y-42168099D01*
X46785932Y-42148393D01*
X46773320Y-42127350D01*
X46762830Y-42105171D01*
X46754565Y-42082072D01*
X46748604Y-42058273D01*
X46745004Y-42034005D01*
X46743800Y-42009501D01*
X46743800Y-41109499D01*
X46745004Y-41084995D01*
X46748604Y-41060727D01*
X46754565Y-41036928D01*
X46762830Y-41013829D01*
X46773320Y-40991650D01*
X46785932Y-40970607D01*
X46800547Y-40950901D01*
X46817023Y-40932723D01*
X46835201Y-40916247D01*
X46854907Y-40901632D01*
X46875950Y-40889020D01*
X46898129Y-40878530D01*
X46921228Y-40870265D01*
X46945027Y-40864304D01*
X46969295Y-40860704D01*
X46993799Y-40859500D01*
X47643801Y-40859500D01*
X47668305Y-40860704D01*
G37*
G36*
X45618305Y-40860704D02*
G01*
X45642573Y-40864304D01*
X45666372Y-40870265D01*
X45689471Y-40878530D01*
X45711650Y-40889020D01*
X45732693Y-40901632D01*
X45752399Y-40916247D01*
X45770577Y-40932723D01*
X45787053Y-40950901D01*
X45801668Y-40970607D01*
X45814280Y-40991650D01*
X45824770Y-41013829D01*
X45833035Y-41036928D01*
X45838996Y-41060727D01*
X45842596Y-41084995D01*
X45843800Y-41109499D01*
X45843800Y-42009501D01*
X45842596Y-42034005D01*
X45838996Y-42058273D01*
X45833035Y-42082072D01*
X45824770Y-42105171D01*
X45814280Y-42127350D01*
X45801668Y-42148393D01*
X45787053Y-42168099D01*
X45770577Y-42186277D01*
X45752399Y-42202753D01*
X45732693Y-42217368D01*
X45711650Y-42229980D01*
X45689471Y-42240470D01*
X45666372Y-42248735D01*
X45642573Y-42254696D01*
X45618305Y-42258296D01*
X45593801Y-42259500D01*
X44943799Y-42259500D01*
X44919295Y-42258296D01*
X44895027Y-42254696D01*
X44871228Y-42248735D01*
X44848129Y-42240470D01*
X44825950Y-42229980D01*
X44804907Y-42217368D01*
X44785201Y-42202753D01*
X44767023Y-42186277D01*
X44750547Y-42168099D01*
X44735932Y-42148393D01*
X44723320Y-42127350D01*
X44712830Y-42105171D01*
X44704565Y-42082072D01*
X44698604Y-42058273D01*
X44695004Y-42034005D01*
X44693800Y-42009501D01*
X44693800Y-41109499D01*
X44695004Y-41084995D01*
X44698604Y-41060727D01*
X44704565Y-41036928D01*
X44712830Y-41013829D01*
X44723320Y-40991650D01*
X44735932Y-40970607D01*
X44750547Y-40950901D01*
X44767023Y-40932723D01*
X44785201Y-40916247D01*
X44804907Y-40901632D01*
X44825950Y-40889020D01*
X44848129Y-40878530D01*
X44871228Y-40870265D01*
X44895027Y-40864304D01*
X44919295Y-40860704D01*
X44943799Y-40859500D01*
X45593801Y-40859500D01*
X45618305Y-40860704D01*
G37*
G36*
X65493305Y-60660704D02*
G01*
X65517573Y-60664304D01*
X65541372Y-60670265D01*
X65564471Y-60678530D01*
X65586650Y-60689020D01*
X65607693Y-60701632D01*
X65627399Y-60716247D01*
X65645577Y-60732723D01*
X65662053Y-60750901D01*
X65676668Y-60770607D01*
X65689280Y-60791650D01*
X65699770Y-60813829D01*
X65708035Y-60836928D01*
X65713996Y-60860727D01*
X65717596Y-60884995D01*
X65718800Y-60909499D01*
X65718800Y-61809501D01*
X65717596Y-61834005D01*
X65713996Y-61858273D01*
X65708035Y-61882072D01*
X65699770Y-61905171D01*
X65689280Y-61927350D01*
X65676668Y-61948393D01*
X65662053Y-61968099D01*
X65645577Y-61986277D01*
X65627399Y-62002753D01*
X65607693Y-62017368D01*
X65586650Y-62029980D01*
X65564471Y-62040470D01*
X65541372Y-62048735D01*
X65517573Y-62054696D01*
X65493305Y-62058296D01*
X65468801Y-62059500D01*
X64818799Y-62059500D01*
X64794295Y-62058296D01*
X64770027Y-62054696D01*
X64746228Y-62048735D01*
X64723129Y-62040470D01*
X64700950Y-62029980D01*
X64679907Y-62017368D01*
X64660201Y-62002753D01*
X64642023Y-61986277D01*
X64625547Y-61968099D01*
X64610932Y-61948393D01*
X64598320Y-61927350D01*
X64587830Y-61905171D01*
X64579565Y-61882072D01*
X64573604Y-61858273D01*
X64570004Y-61834005D01*
X64568800Y-61809501D01*
X64568800Y-60909499D01*
X64570004Y-60884995D01*
X64573604Y-60860727D01*
X64579565Y-60836928D01*
X64587830Y-60813829D01*
X64598320Y-60791650D01*
X64610932Y-60770607D01*
X64625547Y-60750901D01*
X64642023Y-60732723D01*
X64660201Y-60716247D01*
X64679907Y-60701632D01*
X64700950Y-60689020D01*
X64723129Y-60678530D01*
X64746228Y-60670265D01*
X64770027Y-60664304D01*
X64794295Y-60660704D01*
X64818799Y-60659500D01*
X65468801Y-60659500D01*
X65493305Y-60660704D01*
G37*
G36*
X67543305Y-60660704D02*
G01*
X67567573Y-60664304D01*
X67591372Y-60670265D01*
X67614471Y-60678530D01*
X67636650Y-60689020D01*
X67657693Y-60701632D01*
X67677399Y-60716247D01*
X67695577Y-60732723D01*
X67712053Y-60750901D01*
X67726668Y-60770607D01*
X67739280Y-60791650D01*
X67749770Y-60813829D01*
X67758035Y-60836928D01*
X67763996Y-60860727D01*
X67767596Y-60884995D01*
X67768800Y-60909499D01*
X67768800Y-61809501D01*
X67767596Y-61834005D01*
X67763996Y-61858273D01*
X67758035Y-61882072D01*
X67749770Y-61905171D01*
X67739280Y-61927350D01*
X67726668Y-61948393D01*
X67712053Y-61968099D01*
X67695577Y-61986277D01*
X67677399Y-62002753D01*
X67657693Y-62017368D01*
X67636650Y-62029980D01*
X67614471Y-62040470D01*
X67591372Y-62048735D01*
X67567573Y-62054696D01*
X67543305Y-62058296D01*
X67518801Y-62059500D01*
X66868799Y-62059500D01*
X66844295Y-62058296D01*
X66820027Y-62054696D01*
X66796228Y-62048735D01*
X66773129Y-62040470D01*
X66750950Y-62029980D01*
X66729907Y-62017368D01*
X66710201Y-62002753D01*
X66692023Y-61986277D01*
X66675547Y-61968099D01*
X66660932Y-61948393D01*
X66648320Y-61927350D01*
X66637830Y-61905171D01*
X66629565Y-61882072D01*
X66623604Y-61858273D01*
X66620004Y-61834005D01*
X66618800Y-61809501D01*
X66618800Y-60909499D01*
X66620004Y-60884995D01*
X66623604Y-60860727D01*
X66629565Y-60836928D01*
X66637830Y-60813829D01*
X66648320Y-60791650D01*
X66660932Y-60770607D01*
X66675547Y-60750901D01*
X66692023Y-60732723D01*
X66710201Y-60716247D01*
X66729907Y-60701632D01*
X66750950Y-60689020D01*
X66773129Y-60678530D01*
X66796228Y-60670265D01*
X66820027Y-60664304D01*
X66844295Y-60660704D01*
X66868799Y-60659500D01*
X67518801Y-60659500D01*
X67543305Y-60660704D01*
G37*
G36*
X35293305Y-42960704D02*
G01*
X35317573Y-42964304D01*
X35341372Y-42970265D01*
X35364471Y-42978530D01*
X35386650Y-42989020D01*
X35407693Y-43001632D01*
X35427399Y-43016247D01*
X35445577Y-43032723D01*
X35462053Y-43050901D01*
X35476668Y-43070607D01*
X35489280Y-43091650D01*
X35499770Y-43113829D01*
X35508035Y-43136928D01*
X35513996Y-43160727D01*
X35517596Y-43184995D01*
X35518800Y-43209499D01*
X35518800Y-44109501D01*
X35517596Y-44134005D01*
X35513996Y-44158273D01*
X35508035Y-44182072D01*
X35499770Y-44205171D01*
X35489280Y-44227350D01*
X35476668Y-44248393D01*
X35462053Y-44268099D01*
X35445577Y-44286277D01*
X35427399Y-44302753D01*
X35407693Y-44317368D01*
X35386650Y-44329980D01*
X35364471Y-44340470D01*
X35341372Y-44348735D01*
X35317573Y-44354696D01*
X35293305Y-44358296D01*
X35268801Y-44359500D01*
X34618799Y-44359500D01*
X34594295Y-44358296D01*
X34570027Y-44354696D01*
X34546228Y-44348735D01*
X34523129Y-44340470D01*
X34500950Y-44329980D01*
X34479907Y-44317368D01*
X34460201Y-44302753D01*
X34442023Y-44286277D01*
X34425547Y-44268099D01*
X34410932Y-44248393D01*
X34398320Y-44227350D01*
X34387830Y-44205171D01*
X34379565Y-44182072D01*
X34373604Y-44158273D01*
X34370004Y-44134005D01*
X34368800Y-44109501D01*
X34368800Y-43209499D01*
X34370004Y-43184995D01*
X34373604Y-43160727D01*
X34379565Y-43136928D01*
X34387830Y-43113829D01*
X34398320Y-43091650D01*
X34410932Y-43070607D01*
X34425547Y-43050901D01*
X34442023Y-43032723D01*
X34460201Y-43016247D01*
X34479907Y-43001632D01*
X34500950Y-42989020D01*
X34523129Y-42978530D01*
X34546228Y-42970265D01*
X34570027Y-42964304D01*
X34594295Y-42960704D01*
X34618799Y-42959500D01*
X35268801Y-42959500D01*
X35293305Y-42960704D01*
G37*
G36*
X37343305Y-42960704D02*
G01*
X37367573Y-42964304D01*
X37391372Y-42970265D01*
X37414471Y-42978530D01*
X37436650Y-42989020D01*
X37457693Y-43001632D01*
X37477399Y-43016247D01*
X37495577Y-43032723D01*
X37512053Y-43050901D01*
X37526668Y-43070607D01*
X37539280Y-43091650D01*
X37549770Y-43113829D01*
X37558035Y-43136928D01*
X37563996Y-43160727D01*
X37567596Y-43184995D01*
X37568800Y-43209499D01*
X37568800Y-44109501D01*
X37567596Y-44134005D01*
X37563996Y-44158273D01*
X37558035Y-44182072D01*
X37549770Y-44205171D01*
X37539280Y-44227350D01*
X37526668Y-44248393D01*
X37512053Y-44268099D01*
X37495577Y-44286277D01*
X37477399Y-44302753D01*
X37457693Y-44317368D01*
X37436650Y-44329980D01*
X37414471Y-44340470D01*
X37391372Y-44348735D01*
X37367573Y-44354696D01*
X37343305Y-44358296D01*
X37318801Y-44359500D01*
X36668799Y-44359500D01*
X36644295Y-44358296D01*
X36620027Y-44354696D01*
X36596228Y-44348735D01*
X36573129Y-44340470D01*
X36550950Y-44329980D01*
X36529907Y-44317368D01*
X36510201Y-44302753D01*
X36492023Y-44286277D01*
X36475547Y-44268099D01*
X36460932Y-44248393D01*
X36448320Y-44227350D01*
X36437830Y-44205171D01*
X36429565Y-44182072D01*
X36423604Y-44158273D01*
X36420004Y-44134005D01*
X36418800Y-44109501D01*
X36418800Y-43209499D01*
X36420004Y-43184995D01*
X36423604Y-43160727D01*
X36429565Y-43136928D01*
X36437830Y-43113829D01*
X36448320Y-43091650D01*
X36460932Y-43070607D01*
X36475547Y-43050901D01*
X36492023Y-43032723D01*
X36510201Y-43016247D01*
X36529907Y-43001632D01*
X36550950Y-42989020D01*
X36573129Y-42978530D01*
X36596228Y-42970265D01*
X36620027Y-42964304D01*
X36644295Y-42960704D01*
X36668799Y-42959500D01*
X37318801Y-42959500D01*
X37343305Y-42960704D01*
G37*
G36*
X45618305Y-43060704D02*
G01*
X45642573Y-43064304D01*
X45666372Y-43070265D01*
X45689471Y-43078530D01*
X45711650Y-43089020D01*
X45732693Y-43101632D01*
X45752399Y-43116247D01*
X45770577Y-43132723D01*
X45787053Y-43150901D01*
X45801668Y-43170607D01*
X45814280Y-43191650D01*
X45824770Y-43213829D01*
X45833035Y-43236928D01*
X45838996Y-43260727D01*
X45842596Y-43284995D01*
X45843800Y-43309499D01*
X45843800Y-44209501D01*
X45842596Y-44234005D01*
X45838996Y-44258273D01*
X45833035Y-44282072D01*
X45824770Y-44305171D01*
X45814280Y-44327350D01*
X45801668Y-44348393D01*
X45787053Y-44368099D01*
X45770577Y-44386277D01*
X45752399Y-44402753D01*
X45732693Y-44417368D01*
X45711650Y-44429980D01*
X45689471Y-44440470D01*
X45666372Y-44448735D01*
X45642573Y-44454696D01*
X45618305Y-44458296D01*
X45593801Y-44459500D01*
X44943799Y-44459500D01*
X44919295Y-44458296D01*
X44895027Y-44454696D01*
X44871228Y-44448735D01*
X44848129Y-44440470D01*
X44825950Y-44429980D01*
X44804907Y-44417368D01*
X44785201Y-44402753D01*
X44767023Y-44386277D01*
X44750547Y-44368099D01*
X44735932Y-44348393D01*
X44723320Y-44327350D01*
X44712830Y-44305171D01*
X44704565Y-44282072D01*
X44698604Y-44258273D01*
X44695004Y-44234005D01*
X44693800Y-44209501D01*
X44693800Y-43309499D01*
X44695004Y-43284995D01*
X44698604Y-43260727D01*
X44704565Y-43236928D01*
X44712830Y-43213829D01*
X44723320Y-43191650D01*
X44735932Y-43170607D01*
X44750547Y-43150901D01*
X44767023Y-43132723D01*
X44785201Y-43116247D01*
X44804907Y-43101632D01*
X44825950Y-43089020D01*
X44848129Y-43078530D01*
X44871228Y-43070265D01*
X44895027Y-43064304D01*
X44919295Y-43060704D01*
X44943799Y-43059500D01*
X45593801Y-43059500D01*
X45618305Y-43060704D01*
G37*
G36*
X47668305Y-43060704D02*
G01*
X47692573Y-43064304D01*
X47716372Y-43070265D01*
X47739471Y-43078530D01*
X47761650Y-43089020D01*
X47782693Y-43101632D01*
X47802399Y-43116247D01*
X47820577Y-43132723D01*
X47837053Y-43150901D01*
X47851668Y-43170607D01*
X47864280Y-43191650D01*
X47874770Y-43213829D01*
X47883035Y-43236928D01*
X47888996Y-43260727D01*
X47892596Y-43284995D01*
X47893800Y-43309499D01*
X47893800Y-44209501D01*
X47892596Y-44234005D01*
X47888996Y-44258273D01*
X47883035Y-44282072D01*
X47874770Y-44305171D01*
X47864280Y-44327350D01*
X47851668Y-44348393D01*
X47837053Y-44368099D01*
X47820577Y-44386277D01*
X47802399Y-44402753D01*
X47782693Y-44417368D01*
X47761650Y-44429980D01*
X47739471Y-44440470D01*
X47716372Y-44448735D01*
X47692573Y-44454696D01*
X47668305Y-44458296D01*
X47643801Y-44459500D01*
X46993799Y-44459500D01*
X46969295Y-44458296D01*
X46945027Y-44454696D01*
X46921228Y-44448735D01*
X46898129Y-44440470D01*
X46875950Y-44429980D01*
X46854907Y-44417368D01*
X46835201Y-44402753D01*
X46817023Y-44386277D01*
X46800547Y-44368099D01*
X46785932Y-44348393D01*
X46773320Y-44327350D01*
X46762830Y-44305171D01*
X46754565Y-44282072D01*
X46748604Y-44258273D01*
X46745004Y-44234005D01*
X46743800Y-44209501D01*
X46743800Y-43309499D01*
X46745004Y-43284995D01*
X46748604Y-43260727D01*
X46754565Y-43236928D01*
X46762830Y-43213829D01*
X46773320Y-43191650D01*
X46785932Y-43170607D01*
X46800547Y-43150901D01*
X46817023Y-43132723D01*
X46835201Y-43116247D01*
X46854907Y-43101632D01*
X46875950Y-43089020D01*
X46898129Y-43078530D01*
X46921228Y-43070265D01*
X46945027Y-43064304D01*
X46969295Y-43060704D01*
X46993799Y-43059500D01*
X47643801Y-43059500D01*
X47668305Y-43060704D01*
G37*
G36*
X64768305Y-58260704D02*
G01*
X64792573Y-58264304D01*
X64816372Y-58270265D01*
X64839471Y-58278530D01*
X64861650Y-58289020D01*
X64882693Y-58301632D01*
X64902399Y-58316247D01*
X64920577Y-58332723D01*
X64937053Y-58350901D01*
X64951668Y-58370607D01*
X64964280Y-58391650D01*
X64974770Y-58413829D01*
X64983035Y-58436928D01*
X64988996Y-58460727D01*
X64992596Y-58484995D01*
X64993800Y-58509499D01*
X64993800Y-59409501D01*
X64992596Y-59434005D01*
X64988996Y-59458273D01*
X64983035Y-59482072D01*
X64974770Y-59505171D01*
X64964280Y-59527350D01*
X64951668Y-59548393D01*
X64937053Y-59568099D01*
X64920577Y-59586277D01*
X64902399Y-59602753D01*
X64882693Y-59617368D01*
X64861650Y-59629980D01*
X64839471Y-59640470D01*
X64816372Y-59648735D01*
X64792573Y-59654696D01*
X64768305Y-59658296D01*
X64743801Y-59659500D01*
X64093799Y-59659500D01*
X64069295Y-59658296D01*
X64045027Y-59654696D01*
X64021228Y-59648735D01*
X63998129Y-59640470D01*
X63975950Y-59629980D01*
X63954907Y-59617368D01*
X63935201Y-59602753D01*
X63917023Y-59586277D01*
X63900547Y-59568099D01*
X63885932Y-59548393D01*
X63873320Y-59527350D01*
X63862830Y-59505171D01*
X63854565Y-59482072D01*
X63848604Y-59458273D01*
X63845004Y-59434005D01*
X63843800Y-59409501D01*
X63843800Y-58509499D01*
X63845004Y-58484995D01*
X63848604Y-58460727D01*
X63854565Y-58436928D01*
X63862830Y-58413829D01*
X63873320Y-58391650D01*
X63885932Y-58370607D01*
X63900547Y-58350901D01*
X63917023Y-58332723D01*
X63935201Y-58316247D01*
X63954907Y-58301632D01*
X63975950Y-58289020D01*
X63998129Y-58278530D01*
X64021228Y-58270265D01*
X64045027Y-58264304D01*
X64069295Y-58260704D01*
X64093799Y-58259500D01*
X64743801Y-58259500D01*
X64768305Y-58260704D01*
G37*
G36*
X62718305Y-58260704D02*
G01*
X62742573Y-58264304D01*
X62766372Y-58270265D01*
X62789471Y-58278530D01*
X62811650Y-58289020D01*
X62832693Y-58301632D01*
X62852399Y-58316247D01*
X62870577Y-58332723D01*
X62887053Y-58350901D01*
X62901668Y-58370607D01*
X62914280Y-58391650D01*
X62924770Y-58413829D01*
X62933035Y-58436928D01*
X62938996Y-58460727D01*
X62942596Y-58484995D01*
X62943800Y-58509499D01*
X62943800Y-59409501D01*
X62942596Y-59434005D01*
X62938996Y-59458273D01*
X62933035Y-59482072D01*
X62924770Y-59505171D01*
X62914280Y-59527350D01*
X62901668Y-59548393D01*
X62887053Y-59568099D01*
X62870577Y-59586277D01*
X62852399Y-59602753D01*
X62832693Y-59617368D01*
X62811650Y-59629980D01*
X62789471Y-59640470D01*
X62766372Y-59648735D01*
X62742573Y-59654696D01*
X62718305Y-59658296D01*
X62693801Y-59659500D01*
X62043799Y-59659500D01*
X62019295Y-59658296D01*
X61995027Y-59654696D01*
X61971228Y-59648735D01*
X61948129Y-59640470D01*
X61925950Y-59629980D01*
X61904907Y-59617368D01*
X61885201Y-59602753D01*
X61867023Y-59586277D01*
X61850547Y-59568099D01*
X61835932Y-59548393D01*
X61823320Y-59527350D01*
X61812830Y-59505171D01*
X61804565Y-59482072D01*
X61798604Y-59458273D01*
X61795004Y-59434005D01*
X61793800Y-59409501D01*
X61793800Y-58509499D01*
X61795004Y-58484995D01*
X61798604Y-58460727D01*
X61804565Y-58436928D01*
X61812830Y-58413829D01*
X61823320Y-58391650D01*
X61835932Y-58370607D01*
X61850547Y-58350901D01*
X61867023Y-58332723D01*
X61885201Y-58316247D01*
X61904907Y-58301632D01*
X61925950Y-58289020D01*
X61948129Y-58278530D01*
X61971228Y-58270265D01*
X61995027Y-58264304D01*
X62019295Y-58260704D01*
X62043799Y-58259500D01*
X62693801Y-58259500D01*
X62718305Y-58260704D01*
G37*
G36*
X80156305Y-91515904D02*
G01*
X80180573Y-91519504D01*
X80204372Y-91525465D01*
X80227471Y-91533730D01*
X80249650Y-91544220D01*
X80270693Y-91556832D01*
X80290399Y-91571447D01*
X80308577Y-91587923D01*
X80325053Y-91606101D01*
X80339668Y-91625807D01*
X80352280Y-91646850D01*
X80362770Y-91669029D01*
X80371035Y-91692128D01*
X80376996Y-91715927D01*
X80380596Y-91740195D01*
X80381800Y-91764699D01*
X80381800Y-92664701D01*
X80380596Y-92689205D01*
X80376996Y-92713473D01*
X80371035Y-92737272D01*
X80362770Y-92760371D01*
X80352280Y-92782550D01*
X80339668Y-92803593D01*
X80325053Y-92823299D01*
X80308577Y-92841477D01*
X80290399Y-92857953D01*
X80270693Y-92872568D01*
X80249650Y-92885180D01*
X80227471Y-92895670D01*
X80204372Y-92903935D01*
X80180573Y-92909896D01*
X80156305Y-92913496D01*
X80131801Y-92914700D01*
X79481799Y-92914700D01*
X79457295Y-92913496D01*
X79433027Y-92909896D01*
X79409228Y-92903935D01*
X79386129Y-92895670D01*
X79363950Y-92885180D01*
X79342907Y-92872568D01*
X79323201Y-92857953D01*
X79305023Y-92841477D01*
X79288547Y-92823299D01*
X79273932Y-92803593D01*
X79261320Y-92782550D01*
X79250830Y-92760371D01*
X79242565Y-92737272D01*
X79236604Y-92713473D01*
X79233004Y-92689205D01*
X79231800Y-92664701D01*
X79231800Y-91764699D01*
X79233004Y-91740195D01*
X79236604Y-91715927D01*
X79242565Y-91692128D01*
X79250830Y-91669029D01*
X79261320Y-91646850D01*
X79273932Y-91625807D01*
X79288547Y-91606101D01*
X79305023Y-91587923D01*
X79323201Y-91571447D01*
X79342907Y-91556832D01*
X79363950Y-91544220D01*
X79386129Y-91533730D01*
X79409228Y-91525465D01*
X79433027Y-91519504D01*
X79457295Y-91515904D01*
X79481799Y-91514700D01*
X80131801Y-91514700D01*
X80156305Y-91515904D01*
G37*
G36*
X78106305Y-91515904D02*
G01*
X78130573Y-91519504D01*
X78154372Y-91525465D01*
X78177471Y-91533730D01*
X78199650Y-91544220D01*
X78220693Y-91556832D01*
X78240399Y-91571447D01*
X78258577Y-91587923D01*
X78275053Y-91606101D01*
X78289668Y-91625807D01*
X78302280Y-91646850D01*
X78312770Y-91669029D01*
X78321035Y-91692128D01*
X78326996Y-91715927D01*
X78330596Y-91740195D01*
X78331800Y-91764699D01*
X78331800Y-92664701D01*
X78330596Y-92689205D01*
X78326996Y-92713473D01*
X78321035Y-92737272D01*
X78312770Y-92760371D01*
X78302280Y-92782550D01*
X78289668Y-92803593D01*
X78275053Y-92823299D01*
X78258577Y-92841477D01*
X78240399Y-92857953D01*
X78220693Y-92872568D01*
X78199650Y-92885180D01*
X78177471Y-92895670D01*
X78154372Y-92903935D01*
X78130573Y-92909896D01*
X78106305Y-92913496D01*
X78081801Y-92914700D01*
X77431799Y-92914700D01*
X77407295Y-92913496D01*
X77383027Y-92909896D01*
X77359228Y-92903935D01*
X77336129Y-92895670D01*
X77313950Y-92885180D01*
X77292907Y-92872568D01*
X77273201Y-92857953D01*
X77255023Y-92841477D01*
X77238547Y-92823299D01*
X77223932Y-92803593D01*
X77211320Y-92782550D01*
X77200830Y-92760371D01*
X77192565Y-92737272D01*
X77186604Y-92713473D01*
X77183004Y-92689205D01*
X77181800Y-92664701D01*
X77181800Y-91764699D01*
X77183004Y-91740195D01*
X77186604Y-91715927D01*
X77192565Y-91692128D01*
X77200830Y-91669029D01*
X77211320Y-91646850D01*
X77223932Y-91625807D01*
X77238547Y-91606101D01*
X77255023Y-91587923D01*
X77273201Y-91571447D01*
X77292907Y-91556832D01*
X77313950Y-91544220D01*
X77336129Y-91533730D01*
X77359228Y-91525465D01*
X77383027Y-91519504D01*
X77407295Y-91515904D01*
X77431799Y-91514700D01*
X78081801Y-91514700D01*
X78106305Y-91515904D01*
G37*
G36*
X79998305Y-99224204D02*
G01*
X80022573Y-99227804D01*
X80046372Y-99233765D01*
X80069471Y-99242030D01*
X80091650Y-99252520D01*
X80112693Y-99265132D01*
X80132399Y-99279747D01*
X80150577Y-99296223D01*
X80167053Y-99314401D01*
X80181668Y-99334107D01*
X80194280Y-99355150D01*
X80204770Y-99377329D01*
X80213035Y-99400428D01*
X80218996Y-99424227D01*
X80222596Y-99448495D01*
X80223800Y-99472999D01*
X80223800Y-100373001D01*
X80222596Y-100397505D01*
X80218996Y-100421773D01*
X80213035Y-100445572D01*
X80204770Y-100468671D01*
X80194280Y-100490850D01*
X80181668Y-100511893D01*
X80167053Y-100531599D01*
X80150577Y-100549777D01*
X80132399Y-100566253D01*
X80112693Y-100580868D01*
X80091650Y-100593480D01*
X80069471Y-100603970D01*
X80046372Y-100612235D01*
X80022573Y-100618196D01*
X79998305Y-100621796D01*
X79973801Y-100623000D01*
X79323799Y-100623000D01*
X79299295Y-100621796D01*
X79275027Y-100618196D01*
X79251228Y-100612235D01*
X79228129Y-100603970D01*
X79205950Y-100593480D01*
X79184907Y-100580868D01*
X79165201Y-100566253D01*
X79147023Y-100549777D01*
X79130547Y-100531599D01*
X79115932Y-100511893D01*
X79103320Y-100490850D01*
X79092830Y-100468671D01*
X79084565Y-100445572D01*
X79078604Y-100421773D01*
X79075004Y-100397505D01*
X79073800Y-100373001D01*
X79073800Y-99472999D01*
X79075004Y-99448495D01*
X79078604Y-99424227D01*
X79084565Y-99400428D01*
X79092830Y-99377329D01*
X79103320Y-99355150D01*
X79115932Y-99334107D01*
X79130547Y-99314401D01*
X79147023Y-99296223D01*
X79165201Y-99279747D01*
X79184907Y-99265132D01*
X79205950Y-99252520D01*
X79228129Y-99242030D01*
X79251228Y-99233765D01*
X79275027Y-99227804D01*
X79299295Y-99224204D01*
X79323799Y-99223000D01*
X79973801Y-99223000D01*
X79998305Y-99224204D01*
G37*
G36*
X77948305Y-99224204D02*
G01*
X77972573Y-99227804D01*
X77996372Y-99233765D01*
X78019471Y-99242030D01*
X78041650Y-99252520D01*
X78062693Y-99265132D01*
X78082399Y-99279747D01*
X78100577Y-99296223D01*
X78117053Y-99314401D01*
X78131668Y-99334107D01*
X78144280Y-99355150D01*
X78154770Y-99377329D01*
X78163035Y-99400428D01*
X78168996Y-99424227D01*
X78172596Y-99448495D01*
X78173800Y-99472999D01*
X78173800Y-100373001D01*
X78172596Y-100397505D01*
X78168996Y-100421773D01*
X78163035Y-100445572D01*
X78154770Y-100468671D01*
X78144280Y-100490850D01*
X78131668Y-100511893D01*
X78117053Y-100531599D01*
X78100577Y-100549777D01*
X78082399Y-100566253D01*
X78062693Y-100580868D01*
X78041650Y-100593480D01*
X78019471Y-100603970D01*
X77996372Y-100612235D01*
X77972573Y-100618196D01*
X77948305Y-100621796D01*
X77923801Y-100623000D01*
X77273799Y-100623000D01*
X77249295Y-100621796D01*
X77225027Y-100618196D01*
X77201228Y-100612235D01*
X77178129Y-100603970D01*
X77155950Y-100593480D01*
X77134907Y-100580868D01*
X77115201Y-100566253D01*
X77097023Y-100549777D01*
X77080547Y-100531599D01*
X77065932Y-100511893D01*
X77053320Y-100490850D01*
X77042830Y-100468671D01*
X77034565Y-100445572D01*
X77028604Y-100421773D01*
X77025004Y-100397505D01*
X77023800Y-100373001D01*
X77023800Y-99472999D01*
X77025004Y-99448495D01*
X77028604Y-99424227D01*
X77034565Y-99400428D01*
X77042830Y-99377329D01*
X77053320Y-99355150D01*
X77065932Y-99334107D01*
X77080547Y-99314401D01*
X77097023Y-99296223D01*
X77115201Y-99279747D01*
X77134907Y-99265132D01*
X77155950Y-99252520D01*
X77178129Y-99242030D01*
X77201228Y-99233765D01*
X77225027Y-99227804D01*
X77249295Y-99224204D01*
X77273799Y-99223000D01*
X77923801Y-99223000D01*
X77948305Y-99224204D01*
G37*
G36*
X65493305Y-73760704D02*
G01*
X65517573Y-73764304D01*
X65541372Y-73770265D01*
X65564471Y-73778530D01*
X65586650Y-73789020D01*
X65607693Y-73801632D01*
X65627399Y-73816247D01*
X65645577Y-73832723D01*
X65662053Y-73850901D01*
X65676668Y-73870607D01*
X65689280Y-73891650D01*
X65699770Y-73913829D01*
X65708035Y-73936928D01*
X65713996Y-73960727D01*
X65717596Y-73984995D01*
X65718800Y-74009499D01*
X65718800Y-74909501D01*
X65717596Y-74934005D01*
X65713996Y-74958273D01*
X65708035Y-74982072D01*
X65699770Y-75005171D01*
X65689280Y-75027350D01*
X65676668Y-75048393D01*
X65662053Y-75068099D01*
X65645577Y-75086277D01*
X65627399Y-75102753D01*
X65607693Y-75117368D01*
X65586650Y-75129980D01*
X65564471Y-75140470D01*
X65541372Y-75148735D01*
X65517573Y-75154696D01*
X65493305Y-75158296D01*
X65468801Y-75159500D01*
X64818799Y-75159500D01*
X64794295Y-75158296D01*
X64770027Y-75154696D01*
X64746228Y-75148735D01*
X64723129Y-75140470D01*
X64700950Y-75129980D01*
X64679907Y-75117368D01*
X64660201Y-75102753D01*
X64642023Y-75086277D01*
X64625547Y-75068099D01*
X64610932Y-75048393D01*
X64598320Y-75027350D01*
X64587830Y-75005171D01*
X64579565Y-74982072D01*
X64573604Y-74958273D01*
X64570004Y-74934005D01*
X64568800Y-74909501D01*
X64568800Y-74009499D01*
X64570004Y-73984995D01*
X64573604Y-73960727D01*
X64579565Y-73936928D01*
X64587830Y-73913829D01*
X64598320Y-73891650D01*
X64610932Y-73870607D01*
X64625547Y-73850901D01*
X64642023Y-73832723D01*
X64660201Y-73816247D01*
X64679907Y-73801632D01*
X64700950Y-73789020D01*
X64723129Y-73778530D01*
X64746228Y-73770265D01*
X64770027Y-73764304D01*
X64794295Y-73760704D01*
X64818799Y-73759500D01*
X65468801Y-73759500D01*
X65493305Y-73760704D01*
G37*
G36*
X67543305Y-73760704D02*
G01*
X67567573Y-73764304D01*
X67591372Y-73770265D01*
X67614471Y-73778530D01*
X67636650Y-73789020D01*
X67657693Y-73801632D01*
X67677399Y-73816247D01*
X67695577Y-73832723D01*
X67712053Y-73850901D01*
X67726668Y-73870607D01*
X67739280Y-73891650D01*
X67749770Y-73913829D01*
X67758035Y-73936928D01*
X67763996Y-73960727D01*
X67767596Y-73984995D01*
X67768800Y-74009499D01*
X67768800Y-74909501D01*
X67767596Y-74934005D01*
X67763996Y-74958273D01*
X67758035Y-74982072D01*
X67749770Y-75005171D01*
X67739280Y-75027350D01*
X67726668Y-75048393D01*
X67712053Y-75068099D01*
X67695577Y-75086277D01*
X67677399Y-75102753D01*
X67657693Y-75117368D01*
X67636650Y-75129980D01*
X67614471Y-75140470D01*
X67591372Y-75148735D01*
X67567573Y-75154696D01*
X67543305Y-75158296D01*
X67518801Y-75159500D01*
X66868799Y-75159500D01*
X66844295Y-75158296D01*
X66820027Y-75154696D01*
X66796228Y-75148735D01*
X66773129Y-75140470D01*
X66750950Y-75129980D01*
X66729907Y-75117368D01*
X66710201Y-75102753D01*
X66692023Y-75086277D01*
X66675547Y-75068099D01*
X66660932Y-75048393D01*
X66648320Y-75027350D01*
X66637830Y-75005171D01*
X66629565Y-74982072D01*
X66623604Y-74958273D01*
X66620004Y-74934005D01*
X66618800Y-74909501D01*
X66618800Y-74009499D01*
X66620004Y-73984995D01*
X66623604Y-73960727D01*
X66629565Y-73936928D01*
X66637830Y-73913829D01*
X66648320Y-73891650D01*
X66660932Y-73870607D01*
X66675547Y-73850901D01*
X66692023Y-73832723D01*
X66710201Y-73816247D01*
X66729907Y-73801632D01*
X66750950Y-73789020D01*
X66773129Y-73778530D01*
X66796228Y-73770265D01*
X66820027Y-73764304D01*
X66844295Y-73760704D01*
X66868799Y-73759500D01*
X67518801Y-73759500D01*
X67543305Y-73760704D01*
G37*
G36*
X65493305Y-69460704D02*
G01*
X65517573Y-69464304D01*
X65541372Y-69470265D01*
X65564471Y-69478530D01*
X65586650Y-69489020D01*
X65607693Y-69501632D01*
X65627399Y-69516247D01*
X65645577Y-69532723D01*
X65662053Y-69550901D01*
X65676668Y-69570607D01*
X65689280Y-69591650D01*
X65699770Y-69613829D01*
X65708035Y-69636928D01*
X65713996Y-69660727D01*
X65717596Y-69684995D01*
X65718800Y-69709499D01*
X65718800Y-70609501D01*
X65717596Y-70634005D01*
X65713996Y-70658273D01*
X65708035Y-70682072D01*
X65699770Y-70705171D01*
X65689280Y-70727350D01*
X65676668Y-70748393D01*
X65662053Y-70768099D01*
X65645577Y-70786277D01*
X65627399Y-70802753D01*
X65607693Y-70817368D01*
X65586650Y-70829980D01*
X65564471Y-70840470D01*
X65541372Y-70848735D01*
X65517573Y-70854696D01*
X65493305Y-70858296D01*
X65468801Y-70859500D01*
X64818799Y-70859500D01*
X64794295Y-70858296D01*
X64770027Y-70854696D01*
X64746228Y-70848735D01*
X64723129Y-70840470D01*
X64700950Y-70829980D01*
X64679907Y-70817368D01*
X64660201Y-70802753D01*
X64642023Y-70786277D01*
X64625547Y-70768099D01*
X64610932Y-70748393D01*
X64598320Y-70727350D01*
X64587830Y-70705171D01*
X64579565Y-70682072D01*
X64573604Y-70658273D01*
X64570004Y-70634005D01*
X64568800Y-70609501D01*
X64568800Y-69709499D01*
X64570004Y-69684995D01*
X64573604Y-69660727D01*
X64579565Y-69636928D01*
X64587830Y-69613829D01*
X64598320Y-69591650D01*
X64610932Y-69570607D01*
X64625547Y-69550901D01*
X64642023Y-69532723D01*
X64660201Y-69516247D01*
X64679907Y-69501632D01*
X64700950Y-69489020D01*
X64723129Y-69478530D01*
X64746228Y-69470265D01*
X64770027Y-69464304D01*
X64794295Y-69460704D01*
X64818799Y-69459500D01*
X65468801Y-69459500D01*
X65493305Y-69460704D01*
G37*
G36*
X67543305Y-69460704D02*
G01*
X67567573Y-69464304D01*
X67591372Y-69470265D01*
X67614471Y-69478530D01*
X67636650Y-69489020D01*
X67657693Y-69501632D01*
X67677399Y-69516247D01*
X67695577Y-69532723D01*
X67712053Y-69550901D01*
X67726668Y-69570607D01*
X67739280Y-69591650D01*
X67749770Y-69613829D01*
X67758035Y-69636928D01*
X67763996Y-69660727D01*
X67767596Y-69684995D01*
X67768800Y-69709499D01*
X67768800Y-70609501D01*
X67767596Y-70634005D01*
X67763996Y-70658273D01*
X67758035Y-70682072D01*
X67749770Y-70705171D01*
X67739280Y-70727350D01*
X67726668Y-70748393D01*
X67712053Y-70768099D01*
X67695577Y-70786277D01*
X67677399Y-70802753D01*
X67657693Y-70817368D01*
X67636650Y-70829980D01*
X67614471Y-70840470D01*
X67591372Y-70848735D01*
X67567573Y-70854696D01*
X67543305Y-70858296D01*
X67518801Y-70859500D01*
X66868799Y-70859500D01*
X66844295Y-70858296D01*
X66820027Y-70854696D01*
X66796228Y-70848735D01*
X66773129Y-70840470D01*
X66750950Y-70829980D01*
X66729907Y-70817368D01*
X66710201Y-70802753D01*
X66692023Y-70786277D01*
X66675547Y-70768099D01*
X66660932Y-70748393D01*
X66648320Y-70727350D01*
X66637830Y-70705171D01*
X66629565Y-70682072D01*
X66623604Y-70658273D01*
X66620004Y-70634005D01*
X66618800Y-70609501D01*
X66618800Y-69709499D01*
X66620004Y-69684995D01*
X66623604Y-69660727D01*
X66629565Y-69636928D01*
X66637830Y-69613829D01*
X66648320Y-69591650D01*
X66660932Y-69570607D01*
X66675547Y-69550901D01*
X66692023Y-69532723D01*
X66710201Y-69516247D01*
X66729907Y-69501632D01*
X66750950Y-69489020D01*
X66773129Y-69478530D01*
X66796228Y-69470265D01*
X66820027Y-69464304D01*
X66844295Y-69460704D01*
X66868799Y-69459500D01*
X67518801Y-69459500D01*
X67543305Y-69460704D01*
G37*
G36*
X65493305Y-65060704D02*
G01*
X65517573Y-65064304D01*
X65541372Y-65070265D01*
X65564471Y-65078530D01*
X65586650Y-65089020D01*
X65607693Y-65101632D01*
X65627399Y-65116247D01*
X65645577Y-65132723D01*
X65662053Y-65150901D01*
X65676668Y-65170607D01*
X65689280Y-65191650D01*
X65699770Y-65213829D01*
X65708035Y-65236928D01*
X65713996Y-65260727D01*
X65717596Y-65284995D01*
X65718800Y-65309499D01*
X65718800Y-66209501D01*
X65717596Y-66234005D01*
X65713996Y-66258273D01*
X65708035Y-66282072D01*
X65699770Y-66305171D01*
X65689280Y-66327350D01*
X65676668Y-66348393D01*
X65662053Y-66368099D01*
X65645577Y-66386277D01*
X65627399Y-66402753D01*
X65607693Y-66417368D01*
X65586650Y-66429980D01*
X65564471Y-66440470D01*
X65541372Y-66448735D01*
X65517573Y-66454696D01*
X65493305Y-66458296D01*
X65468801Y-66459500D01*
X64818799Y-66459500D01*
X64794295Y-66458296D01*
X64770027Y-66454696D01*
X64746228Y-66448735D01*
X64723129Y-66440470D01*
X64700950Y-66429980D01*
X64679907Y-66417368D01*
X64660201Y-66402753D01*
X64642023Y-66386277D01*
X64625547Y-66368099D01*
X64610932Y-66348393D01*
X64598320Y-66327350D01*
X64587830Y-66305171D01*
X64579565Y-66282072D01*
X64573604Y-66258273D01*
X64570004Y-66234005D01*
X64568800Y-66209501D01*
X64568800Y-65309499D01*
X64570004Y-65284995D01*
X64573604Y-65260727D01*
X64579565Y-65236928D01*
X64587830Y-65213829D01*
X64598320Y-65191650D01*
X64610932Y-65170607D01*
X64625547Y-65150901D01*
X64642023Y-65132723D01*
X64660201Y-65116247D01*
X64679907Y-65101632D01*
X64700950Y-65089020D01*
X64723129Y-65078530D01*
X64746228Y-65070265D01*
X64770027Y-65064304D01*
X64794295Y-65060704D01*
X64818799Y-65059500D01*
X65468801Y-65059500D01*
X65493305Y-65060704D01*
G37*
G36*
X67543305Y-65060704D02*
G01*
X67567573Y-65064304D01*
X67591372Y-65070265D01*
X67614471Y-65078530D01*
X67636650Y-65089020D01*
X67657693Y-65101632D01*
X67677399Y-65116247D01*
X67695577Y-65132723D01*
X67712053Y-65150901D01*
X67726668Y-65170607D01*
X67739280Y-65191650D01*
X67749770Y-65213829D01*
X67758035Y-65236928D01*
X67763996Y-65260727D01*
X67767596Y-65284995D01*
X67768800Y-65309499D01*
X67768800Y-66209501D01*
X67767596Y-66234005D01*
X67763996Y-66258273D01*
X67758035Y-66282072D01*
X67749770Y-66305171D01*
X67739280Y-66327350D01*
X67726668Y-66348393D01*
X67712053Y-66368099D01*
X67695577Y-66386277D01*
X67677399Y-66402753D01*
X67657693Y-66417368D01*
X67636650Y-66429980D01*
X67614471Y-66440470D01*
X67591372Y-66448735D01*
X67567573Y-66454696D01*
X67543305Y-66458296D01*
X67518801Y-66459500D01*
X66868799Y-66459500D01*
X66844295Y-66458296D01*
X66820027Y-66454696D01*
X66796228Y-66448735D01*
X66773129Y-66440470D01*
X66750950Y-66429980D01*
X66729907Y-66417368D01*
X66710201Y-66402753D01*
X66692023Y-66386277D01*
X66675547Y-66368099D01*
X66660932Y-66348393D01*
X66648320Y-66327350D01*
X66637830Y-66305171D01*
X66629565Y-66282072D01*
X66623604Y-66258273D01*
X66620004Y-66234005D01*
X66618800Y-66209501D01*
X66618800Y-65309499D01*
X66620004Y-65284995D01*
X66623604Y-65260727D01*
X66629565Y-65236928D01*
X66637830Y-65213829D01*
X66648320Y-65191650D01*
X66660932Y-65170607D01*
X66675547Y-65150901D01*
X66692023Y-65132723D01*
X66710201Y-65116247D01*
X66729907Y-65101632D01*
X66750950Y-65089020D01*
X66773129Y-65078530D01*
X66796228Y-65070265D01*
X66820027Y-65064304D01*
X66844295Y-65060704D01*
X66868799Y-65059500D01*
X67518801Y-65059500D01*
X67543305Y-65060704D01*
G37*
G36*
X67543305Y-56060704D02*
G01*
X67567573Y-56064304D01*
X67591372Y-56070265D01*
X67614471Y-56078530D01*
X67636650Y-56089020D01*
X67657693Y-56101632D01*
X67677399Y-56116247D01*
X67695577Y-56132723D01*
X67712053Y-56150901D01*
X67726668Y-56170607D01*
X67739280Y-56191650D01*
X67749770Y-56213829D01*
X67758035Y-56236928D01*
X67763996Y-56260727D01*
X67767596Y-56284995D01*
X67768800Y-56309499D01*
X67768800Y-57209501D01*
X67767596Y-57234005D01*
X67763996Y-57258273D01*
X67758035Y-57282072D01*
X67749770Y-57305171D01*
X67739280Y-57327350D01*
X67726668Y-57348393D01*
X67712053Y-57368099D01*
X67695577Y-57386277D01*
X67677399Y-57402753D01*
X67657693Y-57417368D01*
X67636650Y-57429980D01*
X67614471Y-57440470D01*
X67591372Y-57448735D01*
X67567573Y-57454696D01*
X67543305Y-57458296D01*
X67518801Y-57459500D01*
X66868799Y-57459500D01*
X66844295Y-57458296D01*
X66820027Y-57454696D01*
X66796228Y-57448735D01*
X66773129Y-57440470D01*
X66750950Y-57429980D01*
X66729907Y-57417368D01*
X66710201Y-57402753D01*
X66692023Y-57386277D01*
X66675547Y-57368099D01*
X66660932Y-57348393D01*
X66648320Y-57327350D01*
X66637830Y-57305171D01*
X66629565Y-57282072D01*
X66623604Y-57258273D01*
X66620004Y-57234005D01*
X66618800Y-57209501D01*
X66618800Y-56309499D01*
X66620004Y-56284995D01*
X66623604Y-56260727D01*
X66629565Y-56236928D01*
X66637830Y-56213829D01*
X66648320Y-56191650D01*
X66660932Y-56170607D01*
X66675547Y-56150901D01*
X66692023Y-56132723D01*
X66710201Y-56116247D01*
X66729907Y-56101632D01*
X66750950Y-56089020D01*
X66773129Y-56078530D01*
X66796228Y-56070265D01*
X66820027Y-56064304D01*
X66844295Y-56060704D01*
X66868799Y-56059500D01*
X67518801Y-56059500D01*
X67543305Y-56060704D01*
G37*
G36*
X65493305Y-56060704D02*
G01*
X65517573Y-56064304D01*
X65541372Y-56070265D01*
X65564471Y-56078530D01*
X65586650Y-56089020D01*
X65607693Y-56101632D01*
X65627399Y-56116247D01*
X65645577Y-56132723D01*
X65662053Y-56150901D01*
X65676668Y-56170607D01*
X65689280Y-56191650D01*
X65699770Y-56213829D01*
X65708035Y-56236928D01*
X65713996Y-56260727D01*
X65717596Y-56284995D01*
X65718800Y-56309499D01*
X65718800Y-57209501D01*
X65717596Y-57234005D01*
X65713996Y-57258273D01*
X65708035Y-57282072D01*
X65699770Y-57305171D01*
X65689280Y-57327350D01*
X65676668Y-57348393D01*
X65662053Y-57368099D01*
X65645577Y-57386277D01*
X65627399Y-57402753D01*
X65607693Y-57417368D01*
X65586650Y-57429980D01*
X65564471Y-57440470D01*
X65541372Y-57448735D01*
X65517573Y-57454696D01*
X65493305Y-57458296D01*
X65468801Y-57459500D01*
X64818799Y-57459500D01*
X64794295Y-57458296D01*
X64770027Y-57454696D01*
X64746228Y-57448735D01*
X64723129Y-57440470D01*
X64700950Y-57429980D01*
X64679907Y-57417368D01*
X64660201Y-57402753D01*
X64642023Y-57386277D01*
X64625547Y-57368099D01*
X64610932Y-57348393D01*
X64598320Y-57327350D01*
X64587830Y-57305171D01*
X64579565Y-57282072D01*
X64573604Y-57258273D01*
X64570004Y-57234005D01*
X64568800Y-57209501D01*
X64568800Y-56309499D01*
X64570004Y-56284995D01*
X64573604Y-56260727D01*
X64579565Y-56236928D01*
X64587830Y-56213829D01*
X64598320Y-56191650D01*
X64610932Y-56170607D01*
X64625547Y-56150901D01*
X64642023Y-56132723D01*
X64660201Y-56116247D01*
X64679907Y-56101632D01*
X64700950Y-56089020D01*
X64723129Y-56078530D01*
X64746228Y-56070265D01*
X64770027Y-56064304D01*
X64794295Y-56060704D01*
X64818799Y-56059500D01*
X65468801Y-56059500D01*
X65493305Y-56060704D01*
G37*
G36*
X65493305Y-53360704D02*
G01*
X65517573Y-53364304D01*
X65541372Y-53370265D01*
X65564471Y-53378530D01*
X65586650Y-53389020D01*
X65607693Y-53401632D01*
X65627399Y-53416247D01*
X65645577Y-53432723D01*
X65662053Y-53450901D01*
X65676668Y-53470607D01*
X65689280Y-53491650D01*
X65699770Y-53513829D01*
X65708035Y-53536928D01*
X65713996Y-53560727D01*
X65717596Y-53584995D01*
X65718800Y-53609499D01*
X65718800Y-54509501D01*
X65717596Y-54534005D01*
X65713996Y-54558273D01*
X65708035Y-54582072D01*
X65699770Y-54605171D01*
X65689280Y-54627350D01*
X65676668Y-54648393D01*
X65662053Y-54668099D01*
X65645577Y-54686277D01*
X65627399Y-54702753D01*
X65607693Y-54717368D01*
X65586650Y-54729980D01*
X65564471Y-54740470D01*
X65541372Y-54748735D01*
X65517573Y-54754696D01*
X65493305Y-54758296D01*
X65468801Y-54759500D01*
X64818799Y-54759500D01*
X64794295Y-54758296D01*
X64770027Y-54754696D01*
X64746228Y-54748735D01*
X64723129Y-54740470D01*
X64700950Y-54729980D01*
X64679907Y-54717368D01*
X64660201Y-54702753D01*
X64642023Y-54686277D01*
X64625547Y-54668099D01*
X64610932Y-54648393D01*
X64598320Y-54627350D01*
X64587830Y-54605171D01*
X64579565Y-54582072D01*
X64573604Y-54558273D01*
X64570004Y-54534005D01*
X64568800Y-54509501D01*
X64568800Y-53609499D01*
X64570004Y-53584995D01*
X64573604Y-53560727D01*
X64579565Y-53536928D01*
X64587830Y-53513829D01*
X64598320Y-53491650D01*
X64610932Y-53470607D01*
X64625547Y-53450901D01*
X64642023Y-53432723D01*
X64660201Y-53416247D01*
X64679907Y-53401632D01*
X64700950Y-53389020D01*
X64723129Y-53378530D01*
X64746228Y-53370265D01*
X64770027Y-53364304D01*
X64794295Y-53360704D01*
X64818799Y-53359500D01*
X65468801Y-53359500D01*
X65493305Y-53360704D01*
G37*
G36*
X67543305Y-53360704D02*
G01*
X67567573Y-53364304D01*
X67591372Y-53370265D01*
X67614471Y-53378530D01*
X67636650Y-53389020D01*
X67657693Y-53401632D01*
X67677399Y-53416247D01*
X67695577Y-53432723D01*
X67712053Y-53450901D01*
X67726668Y-53470607D01*
X67739280Y-53491650D01*
X67749770Y-53513829D01*
X67758035Y-53536928D01*
X67763996Y-53560727D01*
X67767596Y-53584995D01*
X67768800Y-53609499D01*
X67768800Y-54509501D01*
X67767596Y-54534005D01*
X67763996Y-54558273D01*
X67758035Y-54582072D01*
X67749770Y-54605171D01*
X67739280Y-54627350D01*
X67726668Y-54648393D01*
X67712053Y-54668099D01*
X67695577Y-54686277D01*
X67677399Y-54702753D01*
X67657693Y-54717368D01*
X67636650Y-54729980D01*
X67614471Y-54740470D01*
X67591372Y-54748735D01*
X67567573Y-54754696D01*
X67543305Y-54758296D01*
X67518801Y-54759500D01*
X66868799Y-54759500D01*
X66844295Y-54758296D01*
X66820027Y-54754696D01*
X66796228Y-54748735D01*
X66773129Y-54740470D01*
X66750950Y-54729980D01*
X66729907Y-54717368D01*
X66710201Y-54702753D01*
X66692023Y-54686277D01*
X66675547Y-54668099D01*
X66660932Y-54648393D01*
X66648320Y-54627350D01*
X66637830Y-54605171D01*
X66629565Y-54582072D01*
X66623604Y-54558273D01*
X66620004Y-54534005D01*
X66618800Y-54509501D01*
X66618800Y-53609499D01*
X66620004Y-53584995D01*
X66623604Y-53560727D01*
X66629565Y-53536928D01*
X66637830Y-53513829D01*
X66648320Y-53491650D01*
X66660932Y-53470607D01*
X66675547Y-53450901D01*
X66692023Y-53432723D01*
X66710201Y-53416247D01*
X66729907Y-53401632D01*
X66750950Y-53389020D01*
X66773129Y-53378530D01*
X66796228Y-53370265D01*
X66820027Y-53364304D01*
X66844295Y-53360704D01*
X66868799Y-53359500D01*
X67518801Y-53359500D01*
X67543305Y-53360704D01*
G37*
G36*
X67543305Y-50760704D02*
G01*
X67567573Y-50764304D01*
X67591372Y-50770265D01*
X67614471Y-50778530D01*
X67636650Y-50789020D01*
X67657693Y-50801632D01*
X67677399Y-50816247D01*
X67695577Y-50832723D01*
X67712053Y-50850901D01*
X67726668Y-50870607D01*
X67739280Y-50891650D01*
X67749770Y-50913829D01*
X67758035Y-50936928D01*
X67763996Y-50960727D01*
X67767596Y-50984995D01*
X67768800Y-51009499D01*
X67768800Y-51909501D01*
X67767596Y-51934005D01*
X67763996Y-51958273D01*
X67758035Y-51982072D01*
X67749770Y-52005171D01*
X67739280Y-52027350D01*
X67726668Y-52048393D01*
X67712053Y-52068099D01*
X67695577Y-52086277D01*
X67677399Y-52102753D01*
X67657693Y-52117368D01*
X67636650Y-52129980D01*
X67614471Y-52140470D01*
X67591372Y-52148735D01*
X67567573Y-52154696D01*
X67543305Y-52158296D01*
X67518801Y-52159500D01*
X66868799Y-52159500D01*
X66844295Y-52158296D01*
X66820027Y-52154696D01*
X66796228Y-52148735D01*
X66773129Y-52140470D01*
X66750950Y-52129980D01*
X66729907Y-52117368D01*
X66710201Y-52102753D01*
X66692023Y-52086277D01*
X66675547Y-52068099D01*
X66660932Y-52048393D01*
X66648320Y-52027350D01*
X66637830Y-52005171D01*
X66629565Y-51982072D01*
X66623604Y-51958273D01*
X66620004Y-51934005D01*
X66618800Y-51909501D01*
X66618800Y-51009499D01*
X66620004Y-50984995D01*
X66623604Y-50960727D01*
X66629565Y-50936928D01*
X66637830Y-50913829D01*
X66648320Y-50891650D01*
X66660932Y-50870607D01*
X66675547Y-50850901D01*
X66692023Y-50832723D01*
X66710201Y-50816247D01*
X66729907Y-50801632D01*
X66750950Y-50789020D01*
X66773129Y-50778530D01*
X66796228Y-50770265D01*
X66820027Y-50764304D01*
X66844295Y-50760704D01*
X66868799Y-50759500D01*
X67518801Y-50759500D01*
X67543305Y-50760704D01*
G37*
G36*
X65493305Y-50760704D02*
G01*
X65517573Y-50764304D01*
X65541372Y-50770265D01*
X65564471Y-50778530D01*
X65586650Y-50789020D01*
X65607693Y-50801632D01*
X65627399Y-50816247D01*
X65645577Y-50832723D01*
X65662053Y-50850901D01*
X65676668Y-50870607D01*
X65689280Y-50891650D01*
X65699770Y-50913829D01*
X65708035Y-50936928D01*
X65713996Y-50960727D01*
X65717596Y-50984995D01*
X65718800Y-51009499D01*
X65718800Y-51909501D01*
X65717596Y-51934005D01*
X65713996Y-51958273D01*
X65708035Y-51982072D01*
X65699770Y-52005171D01*
X65689280Y-52027350D01*
X65676668Y-52048393D01*
X65662053Y-52068099D01*
X65645577Y-52086277D01*
X65627399Y-52102753D01*
X65607693Y-52117368D01*
X65586650Y-52129980D01*
X65564471Y-52140470D01*
X65541372Y-52148735D01*
X65517573Y-52154696D01*
X65493305Y-52158296D01*
X65468801Y-52159500D01*
X64818799Y-52159500D01*
X64794295Y-52158296D01*
X64770027Y-52154696D01*
X64746228Y-52148735D01*
X64723129Y-52140470D01*
X64700950Y-52129980D01*
X64679907Y-52117368D01*
X64660201Y-52102753D01*
X64642023Y-52086277D01*
X64625547Y-52068099D01*
X64610932Y-52048393D01*
X64598320Y-52027350D01*
X64587830Y-52005171D01*
X64579565Y-51982072D01*
X64573604Y-51958273D01*
X64570004Y-51934005D01*
X64568800Y-51909501D01*
X64568800Y-51009499D01*
X64570004Y-50984995D01*
X64573604Y-50960727D01*
X64579565Y-50936928D01*
X64587830Y-50913829D01*
X64598320Y-50891650D01*
X64610932Y-50870607D01*
X64625547Y-50850901D01*
X64642023Y-50832723D01*
X64660201Y-50816247D01*
X64679907Y-50801632D01*
X64700950Y-50789020D01*
X64723129Y-50778530D01*
X64746228Y-50770265D01*
X64770027Y-50764304D01*
X64794295Y-50760704D01*
X64818799Y-50759500D01*
X65468801Y-50759500D01*
X65493305Y-50760704D01*
G37*
G36*
X102718305Y-54760704D02*
G01*
X102742573Y-54764304D01*
X102766372Y-54770265D01*
X102789471Y-54778530D01*
X102811650Y-54789020D01*
X102832693Y-54801632D01*
X102852399Y-54816247D01*
X102870577Y-54832723D01*
X102887053Y-54850901D01*
X102901668Y-54870607D01*
X102914280Y-54891650D01*
X102924770Y-54913829D01*
X102933035Y-54936928D01*
X102938996Y-54960727D01*
X102942596Y-54984995D01*
X102943800Y-55009499D01*
X102943800Y-55909501D01*
X102942596Y-55934005D01*
X102938996Y-55958273D01*
X102933035Y-55982072D01*
X102924770Y-56005171D01*
X102914280Y-56027350D01*
X102901668Y-56048393D01*
X102887053Y-56068099D01*
X102870577Y-56086277D01*
X102852399Y-56102753D01*
X102832693Y-56117368D01*
X102811650Y-56129980D01*
X102789471Y-56140470D01*
X102766372Y-56148735D01*
X102742573Y-56154696D01*
X102718305Y-56158296D01*
X102693801Y-56159500D01*
X102043799Y-56159500D01*
X102019295Y-56158296D01*
X101995027Y-56154696D01*
X101971228Y-56148735D01*
X101948129Y-56140470D01*
X101925950Y-56129980D01*
X101904907Y-56117368D01*
X101885201Y-56102753D01*
X101867023Y-56086277D01*
X101850547Y-56068099D01*
X101835932Y-56048393D01*
X101823320Y-56027350D01*
X101812830Y-56005171D01*
X101804565Y-55982072D01*
X101798604Y-55958273D01*
X101795004Y-55934005D01*
X101793800Y-55909501D01*
X101793800Y-55009499D01*
X101795004Y-54984995D01*
X101798604Y-54960727D01*
X101804565Y-54936928D01*
X101812830Y-54913829D01*
X101823320Y-54891650D01*
X101835932Y-54870607D01*
X101850547Y-54850901D01*
X101867023Y-54832723D01*
X101885201Y-54816247D01*
X101904907Y-54801632D01*
X101925950Y-54789020D01*
X101948129Y-54778530D01*
X101971228Y-54770265D01*
X101995027Y-54764304D01*
X102019295Y-54760704D01*
X102043799Y-54759500D01*
X102693801Y-54759500D01*
X102718305Y-54760704D01*
G37*
G36*
X104768305Y-54760704D02*
G01*
X104792573Y-54764304D01*
X104816372Y-54770265D01*
X104839471Y-54778530D01*
X104861650Y-54789020D01*
X104882693Y-54801632D01*
X104902399Y-54816247D01*
X104920577Y-54832723D01*
X104937053Y-54850901D01*
X104951668Y-54870607D01*
X104964280Y-54891650D01*
X104974770Y-54913829D01*
X104983035Y-54936928D01*
X104988996Y-54960727D01*
X104992596Y-54984995D01*
X104993800Y-55009499D01*
X104993800Y-55909501D01*
X104992596Y-55934005D01*
X104988996Y-55958273D01*
X104983035Y-55982072D01*
X104974770Y-56005171D01*
X104964280Y-56027350D01*
X104951668Y-56048393D01*
X104937053Y-56068099D01*
X104920577Y-56086277D01*
X104902399Y-56102753D01*
X104882693Y-56117368D01*
X104861650Y-56129980D01*
X104839471Y-56140470D01*
X104816372Y-56148735D01*
X104792573Y-56154696D01*
X104768305Y-56158296D01*
X104743801Y-56159500D01*
X104093799Y-56159500D01*
X104069295Y-56158296D01*
X104045027Y-56154696D01*
X104021228Y-56148735D01*
X103998129Y-56140470D01*
X103975950Y-56129980D01*
X103954907Y-56117368D01*
X103935201Y-56102753D01*
X103917023Y-56086277D01*
X103900547Y-56068099D01*
X103885932Y-56048393D01*
X103873320Y-56027350D01*
X103862830Y-56005171D01*
X103854565Y-55982072D01*
X103848604Y-55958273D01*
X103845004Y-55934005D01*
X103843800Y-55909501D01*
X103843800Y-55009499D01*
X103845004Y-54984995D01*
X103848604Y-54960727D01*
X103854565Y-54936928D01*
X103862830Y-54913829D01*
X103873320Y-54891650D01*
X103885932Y-54870607D01*
X103900547Y-54850901D01*
X103917023Y-54832723D01*
X103935201Y-54816247D01*
X103954907Y-54801632D01*
X103975950Y-54789020D01*
X103998129Y-54778530D01*
X104021228Y-54770265D01*
X104045027Y-54764304D01*
X104069295Y-54760704D01*
X104093799Y-54759500D01*
X104743801Y-54759500D01*
X104768305Y-54760704D01*
G37*
G36*
X65493305Y-62760704D02*
G01*
X65517573Y-62764304D01*
X65541372Y-62770265D01*
X65564471Y-62778530D01*
X65586650Y-62789020D01*
X65607693Y-62801632D01*
X65627399Y-62816247D01*
X65645577Y-62832723D01*
X65662053Y-62850901D01*
X65676668Y-62870607D01*
X65689280Y-62891650D01*
X65699770Y-62913829D01*
X65708035Y-62936928D01*
X65713996Y-62960727D01*
X65717596Y-62984995D01*
X65718800Y-63009499D01*
X65718800Y-63909501D01*
X65717596Y-63934005D01*
X65713996Y-63958273D01*
X65708035Y-63982072D01*
X65699770Y-64005171D01*
X65689280Y-64027350D01*
X65676668Y-64048393D01*
X65662053Y-64068099D01*
X65645577Y-64086277D01*
X65627399Y-64102753D01*
X65607693Y-64117368D01*
X65586650Y-64129980D01*
X65564471Y-64140470D01*
X65541372Y-64148735D01*
X65517573Y-64154696D01*
X65493305Y-64158296D01*
X65468801Y-64159500D01*
X64818799Y-64159500D01*
X64794295Y-64158296D01*
X64770027Y-64154696D01*
X64746228Y-64148735D01*
X64723129Y-64140470D01*
X64700950Y-64129980D01*
X64679907Y-64117368D01*
X64660201Y-64102753D01*
X64642023Y-64086277D01*
X64625547Y-64068099D01*
X64610932Y-64048393D01*
X64598320Y-64027350D01*
X64587830Y-64005171D01*
X64579565Y-63982072D01*
X64573604Y-63958273D01*
X64570004Y-63934005D01*
X64568800Y-63909501D01*
X64568800Y-63009499D01*
X64570004Y-62984995D01*
X64573604Y-62960727D01*
X64579565Y-62936928D01*
X64587830Y-62913829D01*
X64598320Y-62891650D01*
X64610932Y-62870607D01*
X64625547Y-62850901D01*
X64642023Y-62832723D01*
X64660201Y-62816247D01*
X64679907Y-62801632D01*
X64700950Y-62789020D01*
X64723129Y-62778530D01*
X64746228Y-62770265D01*
X64770027Y-62764304D01*
X64794295Y-62760704D01*
X64818799Y-62759500D01*
X65468801Y-62759500D01*
X65493305Y-62760704D01*
G37*
G36*
X67543305Y-62760704D02*
G01*
X67567573Y-62764304D01*
X67591372Y-62770265D01*
X67614471Y-62778530D01*
X67636650Y-62789020D01*
X67657693Y-62801632D01*
X67677399Y-62816247D01*
X67695577Y-62832723D01*
X67712053Y-62850901D01*
X67726668Y-62870607D01*
X67739280Y-62891650D01*
X67749770Y-62913829D01*
X67758035Y-62936928D01*
X67763996Y-62960727D01*
X67767596Y-62984995D01*
X67768800Y-63009499D01*
X67768800Y-63909501D01*
X67767596Y-63934005D01*
X67763996Y-63958273D01*
X67758035Y-63982072D01*
X67749770Y-64005171D01*
X67739280Y-64027350D01*
X67726668Y-64048393D01*
X67712053Y-64068099D01*
X67695577Y-64086277D01*
X67677399Y-64102753D01*
X67657693Y-64117368D01*
X67636650Y-64129980D01*
X67614471Y-64140470D01*
X67591372Y-64148735D01*
X67567573Y-64154696D01*
X67543305Y-64158296D01*
X67518801Y-64159500D01*
X66868799Y-64159500D01*
X66844295Y-64158296D01*
X66820027Y-64154696D01*
X66796228Y-64148735D01*
X66773129Y-64140470D01*
X66750950Y-64129980D01*
X66729907Y-64117368D01*
X66710201Y-64102753D01*
X66692023Y-64086277D01*
X66675547Y-64068099D01*
X66660932Y-64048393D01*
X66648320Y-64027350D01*
X66637830Y-64005171D01*
X66629565Y-63982072D01*
X66623604Y-63958273D01*
X66620004Y-63934005D01*
X66618800Y-63909501D01*
X66618800Y-63009499D01*
X66620004Y-62984995D01*
X66623604Y-62960727D01*
X66629565Y-62936928D01*
X66637830Y-62913829D01*
X66648320Y-62891650D01*
X66660932Y-62870607D01*
X66675547Y-62850901D01*
X66692023Y-62832723D01*
X66710201Y-62816247D01*
X66729907Y-62801632D01*
X66750950Y-62789020D01*
X66773129Y-62778530D01*
X66796228Y-62770265D01*
X66820027Y-62764304D01*
X66844295Y-62760704D01*
X66868799Y-62759500D01*
X67518801Y-62759500D01*
X67543305Y-62760704D01*
G37*
G36*
X74388505Y-63345304D02*
G01*
X74412773Y-63348904D01*
X74436572Y-63354865D01*
X74459671Y-63363130D01*
X74481850Y-63373620D01*
X74502893Y-63386232D01*
X74522599Y-63400847D01*
X74540777Y-63417323D01*
X74557253Y-63435501D01*
X74571868Y-63455207D01*
X74584480Y-63476250D01*
X74594970Y-63498429D01*
X74603235Y-63521528D01*
X74609196Y-63545327D01*
X74612796Y-63569595D01*
X74614000Y-63594099D01*
X74614000Y-64244101D01*
X74612796Y-64268605D01*
X74609196Y-64292873D01*
X74603235Y-64316672D01*
X74594970Y-64339771D01*
X74584480Y-64361950D01*
X74571868Y-64382993D01*
X74557253Y-64402699D01*
X74540777Y-64420877D01*
X74522599Y-64437353D01*
X74502893Y-64451968D01*
X74481850Y-64464580D01*
X74459671Y-64475070D01*
X74436572Y-64483335D01*
X74412773Y-64489296D01*
X74388505Y-64492896D01*
X74364001Y-64494100D01*
X73463999Y-64494100D01*
X73439495Y-64492896D01*
X73415227Y-64489296D01*
X73391428Y-64483335D01*
X73368329Y-64475070D01*
X73346150Y-64464580D01*
X73325107Y-64451968D01*
X73305401Y-64437353D01*
X73287223Y-64420877D01*
X73270747Y-64402699D01*
X73256132Y-64382993D01*
X73243520Y-64361950D01*
X73233030Y-64339771D01*
X73224765Y-64316672D01*
X73218804Y-64292873D01*
X73215204Y-64268605D01*
X73214000Y-64244101D01*
X73214000Y-63594099D01*
X73215204Y-63569595D01*
X73218804Y-63545327D01*
X73224765Y-63521528D01*
X73233030Y-63498429D01*
X73243520Y-63476250D01*
X73256132Y-63455207D01*
X73270747Y-63435501D01*
X73287223Y-63417323D01*
X73305401Y-63400847D01*
X73325107Y-63386232D01*
X73346150Y-63373620D01*
X73368329Y-63363130D01*
X73391428Y-63354865D01*
X73415227Y-63348904D01*
X73439495Y-63345304D01*
X73463999Y-63344100D01*
X74364001Y-63344100D01*
X74388505Y-63345304D01*
G37*
G36*
X74388505Y-65395304D02*
G01*
X74412773Y-65398904D01*
X74436572Y-65404865D01*
X74459671Y-65413130D01*
X74481850Y-65423620D01*
X74502893Y-65436232D01*
X74522599Y-65450847D01*
X74540777Y-65467323D01*
X74557253Y-65485501D01*
X74571868Y-65505207D01*
X74584480Y-65526250D01*
X74594970Y-65548429D01*
X74603235Y-65571528D01*
X74609196Y-65595327D01*
X74612796Y-65619595D01*
X74614000Y-65644099D01*
X74614000Y-66294101D01*
X74612796Y-66318605D01*
X74609196Y-66342873D01*
X74603235Y-66366672D01*
X74594970Y-66389771D01*
X74584480Y-66411950D01*
X74571868Y-66432993D01*
X74557253Y-66452699D01*
X74540777Y-66470877D01*
X74522599Y-66487353D01*
X74502893Y-66501968D01*
X74481850Y-66514580D01*
X74459671Y-66525070D01*
X74436572Y-66533335D01*
X74412773Y-66539296D01*
X74388505Y-66542896D01*
X74364001Y-66544100D01*
X73463999Y-66544100D01*
X73439495Y-66542896D01*
X73415227Y-66539296D01*
X73391428Y-66533335D01*
X73368329Y-66525070D01*
X73346150Y-66514580D01*
X73325107Y-66501968D01*
X73305401Y-66487353D01*
X73287223Y-66470877D01*
X73270747Y-66452699D01*
X73256132Y-66432993D01*
X73243520Y-66411950D01*
X73233030Y-66389771D01*
X73224765Y-66366672D01*
X73218804Y-66342873D01*
X73215204Y-66318605D01*
X73214000Y-66294101D01*
X73214000Y-65644099D01*
X73215204Y-65619595D01*
X73218804Y-65595327D01*
X73224765Y-65571528D01*
X73233030Y-65548429D01*
X73243520Y-65526250D01*
X73256132Y-65505207D01*
X73270747Y-65485501D01*
X73287223Y-65467323D01*
X73305401Y-65450847D01*
X73325107Y-65436232D01*
X73346150Y-65423620D01*
X73368329Y-65413130D01*
X73391428Y-65404865D01*
X73415227Y-65398904D01*
X73439495Y-65395304D01*
X73463999Y-65394100D01*
X74364001Y-65394100D01*
X74388505Y-65395304D01*
G37*
G36*
X74443305Y-70435704D02*
G01*
X74467573Y-70439304D01*
X74491372Y-70445265D01*
X74514471Y-70453530D01*
X74536650Y-70464020D01*
X74557693Y-70476632D01*
X74577399Y-70491247D01*
X74595577Y-70507723D01*
X74612053Y-70525901D01*
X74626668Y-70545607D01*
X74639280Y-70566650D01*
X74649770Y-70588829D01*
X74658035Y-70611928D01*
X74663996Y-70635727D01*
X74667596Y-70659995D01*
X74668800Y-70684499D01*
X74668800Y-71334501D01*
X74667596Y-71359005D01*
X74663996Y-71383273D01*
X74658035Y-71407072D01*
X74649770Y-71430171D01*
X74639280Y-71452350D01*
X74626668Y-71473393D01*
X74612053Y-71493099D01*
X74595577Y-71511277D01*
X74577399Y-71527753D01*
X74557693Y-71542368D01*
X74536650Y-71554980D01*
X74514471Y-71565470D01*
X74491372Y-71573735D01*
X74467573Y-71579696D01*
X74443305Y-71583296D01*
X74418801Y-71584500D01*
X73518799Y-71584500D01*
X73494295Y-71583296D01*
X73470027Y-71579696D01*
X73446228Y-71573735D01*
X73423129Y-71565470D01*
X73400950Y-71554980D01*
X73379907Y-71542368D01*
X73360201Y-71527753D01*
X73342023Y-71511277D01*
X73325547Y-71493099D01*
X73310932Y-71473393D01*
X73298320Y-71452350D01*
X73287830Y-71430171D01*
X73279565Y-71407072D01*
X73273604Y-71383273D01*
X73270004Y-71359005D01*
X73268800Y-71334501D01*
X73268800Y-70684499D01*
X73270004Y-70659995D01*
X73273604Y-70635727D01*
X73279565Y-70611928D01*
X73287830Y-70588829D01*
X73298320Y-70566650D01*
X73310932Y-70545607D01*
X73325547Y-70525901D01*
X73342023Y-70507723D01*
X73360201Y-70491247D01*
X73379907Y-70476632D01*
X73400950Y-70464020D01*
X73423129Y-70453530D01*
X73446228Y-70445265D01*
X73470027Y-70439304D01*
X73494295Y-70435704D01*
X73518799Y-70434500D01*
X74418801Y-70434500D01*
X74443305Y-70435704D01*
G37*
G36*
X74443305Y-72485704D02*
G01*
X74467573Y-72489304D01*
X74491372Y-72495265D01*
X74514471Y-72503530D01*
X74536650Y-72514020D01*
X74557693Y-72526632D01*
X74577399Y-72541247D01*
X74595577Y-72557723D01*
X74612053Y-72575901D01*
X74626668Y-72595607D01*
X74639280Y-72616650D01*
X74649770Y-72638829D01*
X74658035Y-72661928D01*
X74663996Y-72685727D01*
X74667596Y-72709995D01*
X74668800Y-72734499D01*
X74668800Y-73384501D01*
X74667596Y-73409005D01*
X74663996Y-73433273D01*
X74658035Y-73457072D01*
X74649770Y-73480171D01*
X74639280Y-73502350D01*
X74626668Y-73523393D01*
X74612053Y-73543099D01*
X74595577Y-73561277D01*
X74577399Y-73577753D01*
X74557693Y-73592368D01*
X74536650Y-73604980D01*
X74514471Y-73615470D01*
X74491372Y-73623735D01*
X74467573Y-73629696D01*
X74443305Y-73633296D01*
X74418801Y-73634500D01*
X73518799Y-73634500D01*
X73494295Y-73633296D01*
X73470027Y-73629696D01*
X73446228Y-73623735D01*
X73423129Y-73615470D01*
X73400950Y-73604980D01*
X73379907Y-73592368D01*
X73360201Y-73577753D01*
X73342023Y-73561277D01*
X73325547Y-73543099D01*
X73310932Y-73523393D01*
X73298320Y-73502350D01*
X73287830Y-73480171D01*
X73279565Y-73457072D01*
X73273604Y-73433273D01*
X73270004Y-73409005D01*
X73268800Y-73384501D01*
X73268800Y-72734499D01*
X73270004Y-72709995D01*
X73273604Y-72685727D01*
X73279565Y-72661928D01*
X73287830Y-72638829D01*
X73298320Y-72616650D01*
X73310932Y-72595607D01*
X73325547Y-72575901D01*
X73342023Y-72557723D01*
X73360201Y-72541247D01*
X73379907Y-72526632D01*
X73400950Y-72514020D01*
X73423129Y-72503530D01*
X73446228Y-72495265D01*
X73470027Y-72489304D01*
X73494295Y-72485704D01*
X73518799Y-72484500D01*
X74418801Y-72484500D01*
X74443305Y-72485704D01*
G37*
G36*
X74388505Y-76941704D02*
G01*
X74412773Y-76945304D01*
X74436572Y-76951265D01*
X74459671Y-76959530D01*
X74481850Y-76970020D01*
X74502893Y-76982632D01*
X74522599Y-76997247D01*
X74540777Y-77013723D01*
X74557253Y-77031901D01*
X74571868Y-77051607D01*
X74584480Y-77072650D01*
X74594970Y-77094829D01*
X74603235Y-77117928D01*
X74609196Y-77141727D01*
X74612796Y-77165995D01*
X74614000Y-77190499D01*
X74614000Y-77840501D01*
X74612796Y-77865005D01*
X74609196Y-77889273D01*
X74603235Y-77913072D01*
X74594970Y-77936171D01*
X74584480Y-77958350D01*
X74571868Y-77979393D01*
X74557253Y-77999099D01*
X74540777Y-78017277D01*
X74522599Y-78033753D01*
X74502893Y-78048368D01*
X74481850Y-78060980D01*
X74459671Y-78071470D01*
X74436572Y-78079735D01*
X74412773Y-78085696D01*
X74388505Y-78089296D01*
X74364001Y-78090500D01*
X73463999Y-78090500D01*
X73439495Y-78089296D01*
X73415227Y-78085696D01*
X73391428Y-78079735D01*
X73368329Y-78071470D01*
X73346150Y-78060980D01*
X73325107Y-78048368D01*
X73305401Y-78033753D01*
X73287223Y-78017277D01*
X73270747Y-77999099D01*
X73256132Y-77979393D01*
X73243520Y-77958350D01*
X73233030Y-77936171D01*
X73224765Y-77913072D01*
X73218804Y-77889273D01*
X73215204Y-77865005D01*
X73214000Y-77840501D01*
X73214000Y-77190499D01*
X73215204Y-77165995D01*
X73218804Y-77141727D01*
X73224765Y-77117928D01*
X73233030Y-77094829D01*
X73243520Y-77072650D01*
X73256132Y-77051607D01*
X73270747Y-77031901D01*
X73287223Y-77013723D01*
X73305401Y-76997247D01*
X73325107Y-76982632D01*
X73346150Y-76970020D01*
X73368329Y-76959530D01*
X73391428Y-76951265D01*
X73415227Y-76945304D01*
X73439495Y-76941704D01*
X73463999Y-76940500D01*
X74364001Y-76940500D01*
X74388505Y-76941704D01*
G37*
G36*
X74388505Y-78991704D02*
G01*
X74412773Y-78995304D01*
X74436572Y-79001265D01*
X74459671Y-79009530D01*
X74481850Y-79020020D01*
X74502893Y-79032632D01*
X74522599Y-79047247D01*
X74540777Y-79063723D01*
X74557253Y-79081901D01*
X74571868Y-79101607D01*
X74584480Y-79122650D01*
X74594970Y-79144829D01*
X74603235Y-79167928D01*
X74609196Y-79191727D01*
X74612796Y-79215995D01*
X74614000Y-79240499D01*
X74614000Y-79890501D01*
X74612796Y-79915005D01*
X74609196Y-79939273D01*
X74603235Y-79963072D01*
X74594970Y-79986171D01*
X74584480Y-80008350D01*
X74571868Y-80029393D01*
X74557253Y-80049099D01*
X74540777Y-80067277D01*
X74522599Y-80083753D01*
X74502893Y-80098368D01*
X74481850Y-80110980D01*
X74459671Y-80121470D01*
X74436572Y-80129735D01*
X74412773Y-80135696D01*
X74388505Y-80139296D01*
X74364001Y-80140500D01*
X73463999Y-80140500D01*
X73439495Y-80139296D01*
X73415227Y-80135696D01*
X73391428Y-80129735D01*
X73368329Y-80121470D01*
X73346150Y-80110980D01*
X73325107Y-80098368D01*
X73305401Y-80083753D01*
X73287223Y-80067277D01*
X73270747Y-80049099D01*
X73256132Y-80029393D01*
X73243520Y-80008350D01*
X73233030Y-79986171D01*
X73224765Y-79963072D01*
X73218804Y-79939273D01*
X73215204Y-79915005D01*
X73214000Y-79890501D01*
X73214000Y-79240499D01*
X73215204Y-79215995D01*
X73218804Y-79191727D01*
X73224765Y-79167928D01*
X73233030Y-79144829D01*
X73243520Y-79122650D01*
X73256132Y-79101607D01*
X73270747Y-79081901D01*
X73287223Y-79063723D01*
X73305401Y-79047247D01*
X73325107Y-79032632D01*
X73346150Y-79020020D01*
X73368329Y-79009530D01*
X73391428Y-79001265D01*
X73415227Y-78995304D01*
X73439495Y-78991704D01*
X73463999Y-78990500D01*
X74364001Y-78990500D01*
X74388505Y-78991704D01*
G37*
D11*
X71768800Y-80209500D03*
X71768800Y-79259500D03*
X71768800Y-78309500D03*
X69568800Y-78309500D03*
X69568800Y-80209500D03*
X71768800Y-67409500D03*
X71768800Y-66459500D03*
X71768800Y-65509500D03*
X69568800Y-65509500D03*
X69568800Y-67409500D03*
X71768800Y-74059500D03*
X71768800Y-73109500D03*
X71768800Y-72159500D03*
X69568800Y-72159500D03*
X69568800Y-74059500D03*
D12*
X81168800Y-87259500D03*
X85168800Y-87259500D03*
D13*
X79180800Y-103985000D03*
X79180800Y-103335000D03*
X79180800Y-102685000D03*
X79180800Y-102035000D03*
X82720800Y-102035000D03*
X82720800Y-102685000D03*
X82720800Y-103335000D03*
X82720800Y-103985000D03*
D14*
X60210000Y-37900000D03*
X60210000Y-46100000D03*
X74100000Y-46100000D03*
X74100000Y-37900000D03*
D15*
X71630000Y-40100000D03*
X70530000Y-40100000D03*
X69430000Y-40100000D03*
X68330000Y-40100000D03*
X67230000Y-40100000D03*
X66130000Y-40100000D03*
X65030000Y-40100000D03*
X63930000Y-40100000D03*
D13*
X79147000Y-97215000D03*
X79147000Y-96565000D03*
X79147000Y-95915000D03*
X79147000Y-95265000D03*
X82687000Y-95265000D03*
X82687000Y-95915000D03*
X82687000Y-96565000D03*
X82687000Y-97215000D03*
M02*
