M48
; DRILL file {KiCad (5.1.5)-3} date 9/02/2025 11:18:24
; FORMAT={-:-/ absolute / metric / decimal}
; #@! TF.CreationDate,2025-02-09T11:18:24+01:00
; #@! TF.GenerationSoftware,Kicad,Pcbnew,(5.1.5)-3
; #@! TF.FileFunction,Plated,1,2,PTH
FMAT,2
METRIC
T1C0.400
T2C0.800
T3C1.000
T4C1.020
T5C1.040
T6C1.320
T7C8.400
%
G90
G05
T1
X58.725Y-37.859
X58.776Y-46.038
X59.969Y-93.26
X60.169Y-43.904
X60.769Y-51.459
X60.969Y-54.059
X60.969Y-56.659
X62.169Y-72.159
X62.369Y-67.659
X62.769Y-76.359
X62.789Y-63.462
X63.569Y-72.76
X63.669Y-77.159
X63.769Y-67.76
X65.436Y-52.71
X65.469Y-58.059
X65.469Y-55.259
X65.786Y-59.449
X66.231Y-41.697
X68.369Y-78.459
X68.428Y-72.758
X68.529Y-75.298
X68.569Y-64.859
X68.569Y-69.059
X69.169Y-60.459
X70.769Y-68.559
X73.869Y-62.959
X73.869Y-75.859
X73.969Y-69.659
X75.59Y-37.859
X75.692Y-46.038
X76.669Y-98.323
X76.969Y-93.993
X78.02Y-105.37
X78.62Y-101.169
X78.855Y-90.995
X78.994Y-98.311
X79.096Y-82.055
X80.518Y-94.094
X82.652Y-94.094
X82.652Y-98.87
X85.09Y-102.679
X85.09Y-104.356
X85.561Y-97.093
X86.462Y-95.313
X87.63Y-98.615
T2
X99.269Y-43.559
X101.114Y-39.105
X101.114Y-48.014
X105.569Y-37.259
X105.569Y-49.859
X110.024Y-39.105
X110.024Y-48.014
X111.869Y-43.559
X17.369Y-43.66
X19.214Y-39.205
X19.214Y-48.114
X23.669Y-37.359
X23.669Y-49.959
X28.124Y-39.205
X28.124Y-48.114
X29.969Y-43.66
X57.81Y-109.69
X59.655Y-105.235
X59.655Y-114.145
X64.11Y-103.39
X64.11Y-115.99
X68.564Y-105.235
X68.564Y-114.145
X70.41Y-109.69
X17.269Y-125.759
X19.114Y-121.305
X19.114Y-130.214
X23.569Y-119.459
X23.569Y-132.059
X28.024Y-121.305
X28.024Y-130.214
X29.869Y-125.759
X99.269Y-125.759
X101.114Y-121.305
X101.114Y-130.214
X105.569Y-119.459
X105.569Y-132.059
X110.024Y-121.305
X110.024Y-130.214
X111.869Y-125.759
X90.969Y-52.959
X90.969Y-55.499
X90.969Y-58.039
X90.969Y-60.579
X90.969Y-63.119
X90.969Y-65.659
X90.969Y-68.2
X90.969Y-70.739
X98.589Y-52.959
X98.589Y-55.499
X98.589Y-58.039
X98.589Y-60.579
X98.589Y-63.119
X98.589Y-65.659
X98.589Y-68.2
X98.589Y-70.739
T3
X107.669Y-55.259
X107.669Y-57.799
X107.669Y-60.339
X107.669Y-62.88
X107.669Y-65.419
X107.669Y-67.959
X107.669Y-70.499
X110.209Y-55.259
X110.209Y-57.799
X110.209Y-60.339
X110.209Y-62.88
X110.209Y-65.419
X110.209Y-67.959
X110.209Y-70.499
X35.069Y-38.459
X37.609Y-38.459
X40.149Y-38.459
X42.689Y-38.459
X45.229Y-38.459
X47.769Y-38.459
X43.79Y-61.887
X43.79Y-66.887
X51.869Y-37.559
X51.869Y-40.099
X51.869Y-42.639
X51.869Y-45.179
X51.869Y-47.719
X51.869Y-50.259
X51.869Y-52.799
X51.869Y-55.34
X51.869Y-57.88
X51.869Y-60.419
X51.869Y-62.959
X51.869Y-65.499
X51.869Y-68.04
X51.869Y-70.579
X51.869Y-73.12
X51.869Y-75.659
X51.869Y-78.2
X51.869Y-80.739
X51.869Y-83.279
X43.129Y-101.286
X43.129Y-106.286
X73.9Y-120.429
X73.9Y-122.969
X73.9Y-125.509
X68.123Y-122.929
X68.123Y-125.469
X90.769Y-75.263
X90.769Y-114.759
X107.914Y-75.263
X107.914Y-114.759
X20.169Y-60.739
X20.169Y-63.279
X20.169Y-65.819
X20.169Y-68.359
X43.739Y-82.105
X43.739Y-87.105
X85.75Y-115.329
X85.75Y-117.869
X85.75Y-120.409
X85.75Y-122.949
X85.75Y-125.489
X79.962Y-120.429
X79.962Y-122.969
X79.962Y-125.509
X90.419Y-37.709
X90.419Y-40.249
X90.419Y-42.789
X90.419Y-45.329
X84.769Y-37.579
X84.769Y-40.119
X84.769Y-42.66
X84.769Y-45.2
X84.769Y-47.739
X84.769Y-50.279
X84.769Y-52.819
X84.769Y-55.359
X84.769Y-57.899
X84.769Y-60.439
X84.769Y-62.979
X84.769Y-65.519
X84.769Y-68.059
X84.769Y-70.599
X84.769Y-73.139
X84.769Y-75.679
X84.769Y-78.219
X84.769Y-80.76
X84.769Y-83.299
X19.969Y-80.539
X19.969Y-83.079
X19.969Y-85.62
X19.969Y-88.159
X20.269Y-100.039
X20.269Y-102.579
X20.269Y-105.12
X20.269Y-107.659
T4
X25.879Y-78.109
X25.879Y-90.809
X28.419Y-78.109
X28.419Y-90.809
X30.959Y-78.109
X30.959Y-90.809
X33.499Y-78.109
X33.499Y-90.809
X36.039Y-78.109
X36.039Y-90.809
X38.579Y-78.109
X38.579Y-90.809
X41.119Y-78.109
X41.119Y-90.809
X43.659Y-78.109
X43.659Y-90.809
X25.879Y-57.909
X25.879Y-70.609
X28.419Y-57.909
X28.419Y-70.609
X30.959Y-57.909
X30.959Y-70.609
X33.499Y-57.909
X33.499Y-70.609
X36.039Y-57.909
X36.039Y-70.609
X38.579Y-57.909
X38.579Y-70.609
X41.119Y-57.909
X41.119Y-70.609
X43.659Y-57.909
X43.659Y-70.609
X25.246Y-97.244
X25.246Y-109.944
X27.786Y-97.244
X27.786Y-109.944
X30.326Y-97.244
X30.326Y-109.944
X32.866Y-97.244
X32.866Y-109.944
X35.406Y-97.244
X35.406Y-109.944
X37.946Y-97.244
X37.946Y-109.944
X40.486Y-97.244
X40.486Y-109.944
X43.026Y-97.244
X43.026Y-109.944
T5
X55.401Y-37.559
X55.401Y-40.099
X55.401Y-42.639
X55.401Y-45.179
X55.401Y-47.719
X55.401Y-50.259
X55.401Y-52.799
X55.401Y-55.34
X55.401Y-57.88
X55.401Y-60.419
X55.401Y-62.959
X55.401Y-65.499
X55.401Y-68.04
X55.401Y-70.579
X55.401Y-73.12
X55.401Y-75.659
X55.401Y-78.2
X55.401Y-80.739
X55.401Y-83.279
X80.801Y-37.559
X80.801Y-40.099
X80.801Y-42.639
X80.801Y-45.179
X80.801Y-47.719
X80.801Y-50.259
X80.801Y-52.799
X80.801Y-55.34
X80.801Y-57.88
X80.801Y-60.419
X80.801Y-62.959
X80.801Y-65.499
X80.801Y-68.04
X80.801Y-70.579
X80.801Y-73.12
X80.801Y-75.659
X80.801Y-78.2
X80.801Y-80.739
X80.801Y-83.279
T6
X38.969Y-120.559
X43.969Y-120.559
T7
X23.669Y-43.66
X105.569Y-125.759
X105.569Y-43.559
X64.11Y-109.69
X23.569Y-125.759
T0
M30
