0
SECTION
2
HEADER
9
$INSUNITS
70
4
9
$ACADVER
1
AC1014
9
$HANDSEED
5
FFFF
0
ENDSEC
0
SECTION
2
TABLES
0
TABLE
2
VPORT
5
8
100
AcDbSymbolTable
0
ENDTAB
0
TABLE
2
LTYPE
5
5
100
AcDbSymbolTable
0
LTYPE
5
14
100
AcDbSymbolTableRecord
100
AcDbLinetypeTableRecord
2
BYBLOCK
70
0
0
LTYPE
5
15
100
AcDbSymbolTableRecord
100
AcDbLinetypeTableRecord
2
BYLAYER
70
0
0
LTYPE
5
16
100
AcDbSymbolTableRecord
100
AcDbLinetypeTableRecord
2
DASHED
70
0
3
Dashed __ __ __ __ __ __ __ __ __ __ __ __ __ _
72
65
73
2
40
0.75
49
0.5
74
0
49
-0.25
74
0
0
ENDTAB
0
TABLE
2
LAYER
5
2
100
AcDbSymbolTable
70
3
0
LAYER
5
50
100
AcDbSymbolTableRecord
100
AcDbLayerTableRecord
2
1
70
0
62
7
6
DASHED
0
LAYER
5
51
100
AcDbSymbolTableRecord
100
AcDbLayerTableRecord
2
0
70
0
62
7
6
CONTINUOUS
0
ENDTAB
0
TABLE
2
STYLE
5
3
100
AcDbSymbolTable
70
1
0
STYLE
5
11
100
AcDbSymbolTableRecord
100
AcDbTextStyleTableRecord
2
STANDARD
70
0
0
ENDTAB
0
TABLE
2
VIEW
5
6
100
AcDbSymbolTable
70
0
0
ENDTAB
0
TABLE
2
UCS
5
7
100
AcDbSymbolTable
70
0
0
ENDTAB
0
TABLE
2
APPID
5
9
100
AcDbSymbolTable
70
2
0
APPID
5
12
100
AcDbSymbolTableRecord
100
AcDbRegAppTableRecord
2
ACAD
70
0
0
ENDTAB
0
TABLE
2
DIMSTYLE
5
A
100
AcDbSymbolTable
70
1
0
ENDTAB
0
TABLE
2
BLOCK_RECORD
5
1
100
AcDbSymbolTable
70
1
0
BLOCK_RECORD
5
1F
100
AcDbSymbolTableRecord
100
AcDbBlockTableRecord
2
*MODEL_SPACE
0
BLOCK_RECORD
5
1B
100
AcDbSymbolTableRecord
100
AcDbBlockTableRecord
2
*PAPER_SPACE
0
ENDTAB
0
ENDSEC
0
SECTION
2
BLOCKS
0
BLOCK
5
20
100
AcDbEntity
100
AcDbBlockBegin
2
*MODEL_SPACE
0
ENDBLK
5
21
100
AcDbEntity
100
AcDbBlockEnd
0
BLOCK
5
1C
100
AcDbEntity
100
AcDbBlockBegin
2
*PAPER_SPACE
0
ENDBLK
5
1D
100
AcDbEntity
100
AcDbBlockEnd
0
ENDSEC
0
SECTION
2
ENTITIES
0
POINT
5
100
100
AcDbEntity
8
0
100
AcDbPoint
10
0
20
0
30
0
0
POINT
5
101
100
AcDbEntity
8
0
100
AcDbPoint
10
0
20
0
30
0
0
POINT
5
102
100
AcDbEntity
8
0
100
AcDbPoint
10
50.556349186104029
20
28.056349186104022
30
0
0
LINE
5
103
100
AcDbEntity
8
0
100
AcDbLine
10
59.999999999999986
20
-37.499999999999993
30
0
11
-59.999999999999986
21
-37.499999999999993
31
0
0
LINE
5
104
100
AcDbEntity
8
0
100
AcDbLine
10
-59.999999999999986
20
-37.499999999999993
30
0
11
-59.999999999999986
21
37.499999999999993
31
0
0
LINE
5
105
100
AcDbEntity
8
0
100
AcDbLine
10
-59.999999999999986
20
37.499999999999993
30
0
11
59.999999999999986
21
37.499999999999993
31
0
0
LINE
5
106
100
AcDbEntity
8
0
100
AcDbLine
10
59.999999999999986
20
37.499999999999993
30
0
11
59.999999999999986
21
-37.499999999999993
31
0
0
LINE
5
107
100
AcDbEntity
8
1
100
AcDbLine
10
59.999999999999986
20
-37.499999999999993
30
0
11
-59.999999999999986
21
37.499999999999993
31
0
0
LINE
5
108
100
AcDbEntity
8
1
100
AcDbLine
10
-59.999999999999986
20
-37.499999999999993
30
0
11
59.999999999999986
21
37.499999999999993
31
0
0
LINE
5
109
100
AcDbEntity
8
0
100
AcDbLine
10
-59.999999999999986
20
-12.499999999999996
30
0
11
-34.999999999999986
21
-37.499999999999993
31
0
0
CIRCLE
5
110
100
AcDbEntity
8
0
100
AcDbCircle
10
34.999999999999986
20
12.499999999999996
30
0
40
7.5
210
0
220
0
230
1
0
LINE
5
111
100
AcDbEntity
8
0
100
AcDbLine
10
53.384776310850242
20
28.056349186104036
30
0
11
50.55634918610405
21
25.227922061357848
31
0
0
LINE
5
112
100
AcDbEntity
8
0
100
AcDbLine
10
47.727922061357866
20
28.056349186104036
30
0
11
50.55634918610405
21
30.884776310850228
31
0
0
LINE
5
113
100
AcDbEntity
8
1
100
AcDbLine
10
34.999999999999986
20
12.499999999999996
30
0
11
50.556349186104029
21
28.056349186104022
31
0
0
CIRCLE
5
114
100
AcDbEntity
8
0
100
AcDbCircle
10
50.999999999999986
20
-28.499999999999996
30
0
40
4.25
210
0
220
0
230
1
0
LINE
5
115
100
AcDbEntity
8
1
100
AcDbLine
10
50.999999999999986
20
-28.499999999999996
30
0
11
-34.363764364942469
21
-28.499999999999993
31
0
0
CIRCLE
5
116
100
AcDbEntity
8
0
100
AcDbCircle
10
-31.000000000000021
20
-28.499999999999993
30
0
40
4.25
210
0
220
0
230
1
0
LINE
5
117
100
AcDbEntity
8
1
100
AcDbLine
10
-31.000000000000021
20
-28.499999999999993
30
0
11
-31.000000000000043
21
70
31
0
0
CIRCLE
5
118
100
AcDbEntity
8
0
100
AcDbCircle
10
-31.000000000000036
20
53.500000000000014
30
0
40
4.2500000000000044
210
0
220
0
230
1
0
LINE
5
119
100
AcDbEntity
8
0
100
AcDbLine
10
-24.500000000000043
20
47.000000000000036
30
0
11
-15.000000000000135
21
37.500000000000007
31
0
0
LINE
5
120
100
AcDbEntity
8
1
100
AcDbLine
10
-31.000000000000036
20
53.500000000000014
30
0
11
-7.9583694396573845
21
53.500000000000014
31
0
0
LINE
5
121
100
AcDbEntity
8
0
100
AcDbLine
10
-59.999999999999986
20
37.499999999999993
30
0
11
-37.500000000000028
21
60
31
0
0
ARC
5
122
100
AcDbEntity
8
0
100
AcDbCircle
10
-31.000000000000036
20
53.500000000000014
30
0
40
9.1923881554250979
210
-0
220
0
230
1
100
AcDbArc
50
-44.99999999999995
51
135.00000000000006
0
LINE
5
123
100
AcDbEntity
8
1
100
AcDbLine
10
59.999999999999986
20
-37.499999999999993
30
0
11
-40.000000000000014
21
-37.499999999999993
31
0
0
LINE
5
124
100
AcDbEntity
8
0
100
AcDbLine
10
-40.000000000000014
20
-37.499999999999993
30
0
11
-40.000000000000014
21
62.5
31
0
0
LINE
5
125
100
AcDbEntity
8
1
100
AcDbLine
10
-40.000000000000014
20
62.5
30
0
11
59.999999999999986
21
62.5
31
0
0
LINE
5
126
100
AcDbEntity
8
1
100
AcDbLine
10
59.999999999999986
20
62.5
30
0
11
59.999999999999986
21
-37.499999999999993
31
0
0
ARC
5
127
100
AcDbEntity
8
0
100
AcDbCircle
10
49.142135623730979
20
26.64213562373094
30
0
40
2.0000000000000115
210
0
220
0
230
1
100
AcDbArc
50
135.00000000000037
51
224.99999999999963
0
ARC
5
128
100
AcDbEntity
8
0
100
AcDbCircle
10
49.142135623730958
20
26.642135623730926
30
0
40
1.9999999999999898
210
0
220
0
230
1
100
AcDbArc
50
224.99999999999977
51
315.00000000000028
0
ARC
5
129
100
AcDbEntity
8
0
100
AcDbCircle
10
51.970562748477143
20
29.470562748477128
30
0
40
2.0000000000000022
210
-0
220
0
230
1
100
AcDbArc
50
-44.999999999999851
51
45.00000000000022
0
ARC
5
130
100
AcDbEntity
8
0
100
AcDbCircle
10
51.970562748477143
20
29.470562748477125
30
0
40
2.0000000000000053
210
0
220
-0
230
1
100
AcDbArc
50
44.999999999999922
51
134.9999999999998
0
CIRCLE
5
131
100
AcDbEntity
8
0
100
AcDbCircle
10
34.999999999999986
20
12.499999999999996
30
0
40
3.9999999999999991
210
0
220
0
230
1
0
ARC
5
132
100
AcDbEntity
8
0
100
AcDbCircle
10
20.857864376269028
20
26.642135623730987
30
0
40
2.0000000000000115
210
0
220
0
230
1
100
AcDbArc
50
225.00000000000037
51
314.99999999999972
0
LINE
5
133
100
AcDbEntity
8
0
100
AcDbLine
10
19.443650813895932
20
25.227922061357873
30
0
11
16.615223689149733
21
28.056349186104057
31
0
0
ARC
5
134
100
AcDbEntity
8
0
100
AcDbCircle
10
18.02943725152284
20
29.47056274847715
30
0
40
2.0000000000000089
210
0
220
0
230
1
100
AcDbArc
50
135
51
224.99999999999972
0
ARC
5
135
100
AcDbEntity
8
0
100
AcDbCircle
10
18.029437251522836
20
29.47056274847715
30
0
40
2.0000000000000022
210
0
220
-0
230
1
100
AcDbArc
50
45.00000000000022
51
135.00000000000031
0
LINE
5
136
100
AcDbEntity
8
0
100
AcDbLine
10
19.443650813895928
20
30.884776310850253
30
0
11
22.272077938642116
21
28.056349186104057
31
0
0
ARC
5
137
100
AcDbEntity
8
0
100
AcDbCircle
10
20.857864376269042
20
26.642135623730965
30
0
40
1.9999999999999898
210
0
220
0
230
1
100
AcDbArc
50
-45.000000000000156
51
45.000000000000355
0
ARC
5
138
100
AcDbEntity
8
0
100
AcDbCircle
10
20.857864376268989
20
-1.6421356237309492
30
0
40
2.0000000000000115
210
0
220
0
230
1
100
AcDbArc
50
-44.999999999999751
51
44.99999999999973
0
LINE
5
139
100
AcDbEntity
8
0
100
AcDbLine
10
22.272077938642099
20
-3.0563491861040459
30
0
11
19.443650813895914
21
-5.8847763108502349
31
0
0
ARC
5
140
100
AcDbEntity
8
0
100
AcDbCircle
10
18.029437251522822
20
-4.4705627484771338
30
0
40
2.0000000000000053
210
0
220
0
230
1
100
AcDbArc
50
224.99999999999997
51
314.99999999999983
0
ARC
5
141
100
AcDbEntity
8
0
100
AcDbCircle
10
18.029437251522822
20
-4.4705627484771382
30
0
40
2.0000000000000022
210
0
220
0
230
1
100
AcDbArc
50
135.00000000000017
51
225.00000000000014
0
LINE
5
142
100
AcDbEntity
8
0
100
AcDbLine
10
16.615223689149722
20
-3.0563491861040459
30
0
11
19.443650813895914
21
-0.22792206135785698
31
0
0
ARC
5
143
100
AcDbEntity
8
0
100
AcDbCircle
10
20.857864376269006
20
-1.6421356237309359
30
0
40
1.9999999999999898
210
0
220
-0
230
1
100
AcDbArc
50
44.999999999999808
51
135.00000000000028
0
ARC
5
144
100
AcDbEntity
8
0
100
AcDbCircle
10
49.142135623730923
20
-1.6421356237310025
30
0
40
2.0000000000000084
210
0
220
-0
230
1
100
AcDbArc
50
45.000000000000355
51
134.99999999999966
0
LINE
5
145
100
AcDbEntity
8
0
100
AcDbLine
10
50.556349186104015
20
-0.2279220613578925
30
0
11
53.384776310850199
21
-3.056349186104077
31
0
0
ARC
5
146
100
AcDbEntity
8
0
100
AcDbCircle
10
51.970562748477107
20
-4.4705627484771693
30
0
40
2.0000000000000022
210
0
220
0
230
1
100
AcDbArc
50
-45.000000000000156
51
45
0
ARC
5
147
100
AcDbEntity
8
0
100
AcDbCircle
10
51.970562748477107
20
-4.4705627484771693
30
0
40
2.0000000000000022
210
0
220
0
230
1
100
AcDbArc
50
225.00000000000014
51
315.00000000000017
0
LINE
5
148
100
AcDbEntity
8
0
100
AcDbLine
10
50.556349186104015
20
-5.8847763108502704
30
0
11
47.72792206135783
21
-3.056349186104077
31
0
0
ARC
5
149
100
AcDbEntity
8
0
100
AcDbCircle
10
49.142135623730908
20
-1.6421356237309848
30
0
40
1.9999999999999836
210
0
220
0
230
1
100
AcDbArc
50
134.99999999999972
51
225.00000000000028
0
ENDSEC
0
SECTION
2
OBJECTS
0
DICTIONARY
5
C
100
AcDbDictionary
3
ACAD_GROUP
350
D
3
ACAD_MLINESTYLE
350
17
0
DICTIONARY
5
D
100
AcDbDictionary
0
DICTIONARY
5
1A
330
C
100
AcDbDictionary
0
DICTIONARY
5
17
100
AcDbDictionary
0
ENDSEC
0
EOF
